<svg width="270" height="221" viewBox="0 0 270 221" fill="none" xmlns="http://www.w3.org/2000/svg">
<g opacity="0.8">
<g clip-path="url(#clip0)">
<path d="M216.324 221C243.371 221 265.297 216.037 265.297 209.915C265.297 203.793 243.371 198.83 216.324 198.83C189.277 198.83 167.351 203.793 167.351 209.915C167.351 216.037 189.277 221 216.324 221Z" fill="#006699"/>
<path d="M220.865 217.74C247.912 217.74 269.838 212.777 269.838 206.654C269.838 200.532 247.912 195.569 220.865 195.569C193.818 195.569 171.892 200.532 171.892 206.654C171.892 212.777 193.818 217.74 220.865 217.74Z" stroke="#3F3D56" stroke-miterlimit="10"/>
<path d="M141.568 109.007C146.941 109.007 151.297 104.628 151.297 99.2264C151.297 93.8245 146.941 89.4454 141.568 89.4454C136.194 89.4454 131.838 93.8245 131.838 99.2264C131.838 104.628 136.194 109.007 141.568 109.007Z" fill="#006699"/>
<path d="M180.811 109.007C186.184 109.007 190.541 104.628 190.541 99.2264C190.541 93.8245 186.184 89.4454 180.811 89.4454C175.437 89.4454 171.081 93.8245 171.081 99.2264C171.081 104.628 175.437 109.007 180.811 109.007Z" fill="#006699"/>
<path d="M220.054 109.007C225.428 109.007 229.784 104.628 229.784 99.2264C229.784 93.8245 225.428 89.4454 220.054 89.4454C214.68 89.4454 210.324 93.8245 210.324 99.2264C210.324 104.628 214.68 109.007 220.054 109.007Z" fill="#006699"/>
<path d="M4.05403 7.61111C4.59139 7.61111 5.027 7.1732 5.027 6.63301C5.027 6.09282 4.59139 5.65491 4.05403 5.65491C3.51667 5.65491 3.08105 6.09282 3.08105 6.63301C3.08105 7.1732 3.51667 7.61111 4.05403 7.61111Z" fill="#F86B75"/>
<path d="M6.97297 7.61111C7.51033 7.61111 7.94595 7.1732 7.94595 6.63301C7.94595 6.09282 7.51033 5.65491 6.97297 5.65491C6.43561 5.65491 6 6.09282 6 6.63301C6 7.1732 6.43561 7.61111 6.97297 7.61111Z" fill="#FAD375"/>
<path d="M9.89192 7.61111C10.4293 7.61111 10.8649 7.1732 10.8649 6.63301C10.8649 6.09282 10.4293 5.65491 9.89192 5.65491C9.35456 5.65491 8.91895 6.09282 8.91895 6.63301C8.91895 7.1732 9.35456 7.61111 9.89192 7.61111Z" fill="#8BCC55"/>
<path d="M88.5406 21.7936H21.7297V42.6597H88.5406V21.7936Z" fill="#006699"/>
<path d="M118.216 3.37268H0.162109V73.7959H118.216V3.37268Z" stroke="#3F3D56" stroke-miterlimit="10"/>
<path d="M0.162109 8.70605H118.216" stroke="#3F3D56" stroke-miterlimit="10"/>
<path d="M4.37837 6.95913C4.91573 6.95913 5.35134 6.52122 5.35134 5.98103C5.35134 5.44084 4.91573 5.00293 4.37837 5.00293C3.84101 5.00293 3.4054 5.44084 3.4054 5.98103C3.4054 6.52122 3.84101 6.95913 4.37837 6.95913Z" stroke="#3F3D56" stroke-miterlimit="10"/>
<path d="M7.29731 6.95913C7.83467 6.95913 8.27029 6.52122 8.27029 5.98103C8.27029 5.44084 7.83467 5.00293 7.29731 5.00293C6.75996 5.00293 6.32434 5.44084 6.32434 5.98103C6.32434 6.52122 6.75996 6.95913 7.29731 6.95913Z" stroke="#3F3D56" stroke-miterlimit="10"/>
<path d="M10.2163 6.95913C10.7536 6.95913 11.1892 6.52122 11.1892 5.98103C11.1892 5.44084 10.7536 5.00293 10.2163 5.00293C9.6789 5.00293 9.24329 5.44084 9.24329 5.98103C9.24329 6.52122 9.6789 6.95913 10.2163 6.95913Z" stroke="#3F3D56" stroke-miterlimit="10"/>
<path d="M92.5946 17.7181H25.7838V38.5843H92.5946V17.7181Z" stroke="#3F3D56" stroke-miterlimit="10"/>
<path d="M102.811 51.7887H13.2974V54.4869H102.811V51.7887Z" fill="#F2F2F2"/>
<path d="M102.811 58.2644H13.2974V60.9626H102.811V58.2644Z" fill="#F2F2F2"/>
<path d="M102.811 64.7401H13.2974V67.4383H102.811V64.7401Z" fill="#F2F2F2"/>
<path d="M103.784 50.4845H14.2703V53.1827H103.784V50.4845Z" stroke="#3F3D56" stroke-miterlimit="10"/>
<path d="M103.784 56.9602H14.2703V59.6584H103.784V56.9602Z" stroke="#3F3D56" stroke-miterlimit="10"/>
<path d="M103.784 63.4359H14.2703V66.1341H103.784V63.4359Z" stroke="#3F3D56" stroke-miterlimit="10"/>
<path d="M31.2973 129.548C31.8347 129.548 32.2703 129.11 32.2703 128.57C32.2703 128.029 31.8347 127.591 31.2973 127.591C30.76 127.591 30.3243 128.029 30.3243 128.57C30.3243 129.11 30.76 129.548 31.2973 129.548Z" fill="#F86B75"/>
<path d="M34.2163 129.548C34.7536 129.548 35.1892 129.11 35.1892 128.57C35.1892 128.029 34.7536 127.591 34.2163 127.591C33.6789 127.591 33.2433 128.029 33.2433 128.57C33.2433 129.11 33.6789 129.548 34.2163 129.548Z" fill="#FAD375"/>
<path d="M37.1351 129.548C37.6724 129.548 38.108 129.11 38.108 128.57C38.108 128.029 37.6724 127.591 37.1351 127.591C36.5977 127.591 36.1621 128.029 36.1621 128.57C36.1621 129.11 36.5977 129.548 37.1351 129.548Z" fill="#8BCC55"/>
<path d="M115.784 143.73H48.973V164.596H115.784V143.73Z" fill="#006699"/>
<path d="M145.459 139.655V195.733H27.4054V125.309H123.405" stroke="#3F3D56" stroke-miterlimit="10"/>
<path d="M27.4054 130.643H123.568" stroke="#3F3D56" stroke-miterlimit="10"/>
<path d="M31.6217 128.896C32.159 128.896 32.5946 128.458 32.5946 127.917C32.5946 127.377 32.159 126.939 31.6217 126.939C31.0843 126.939 30.6487 127.377 30.6487 127.917C30.6487 128.458 31.0843 128.896 31.6217 128.896Z" stroke="#3F3D56" stroke-miterlimit="10"/>
<path d="M34.5406 128.896C35.078 128.896 35.5136 128.458 35.5136 127.917C35.5136 127.377 35.078 126.939 34.5406 126.939C34.0032 126.939 33.5676 127.377 33.5676 127.917C33.5676 128.458 34.0032 128.896 34.5406 128.896Z" stroke="#3F3D56" stroke-miterlimit="10"/>
<path d="M37.4594 128.896C37.9968 128.896 38.4324 128.458 38.4324 127.917C38.4324 127.377 37.9968 126.939 37.4594 126.939C36.9221 126.939 36.4865 127.377 36.4865 127.917C36.4865 128.458 36.9221 128.896 37.4594 128.896Z" stroke="#3F3D56" stroke-miterlimit="10"/>
<path d="M119.838 139.655H53.0271V160.521H119.838V139.655Z" stroke="#3F3D56" stroke-miterlimit="10"/>
<path d="M127.297 73.1438C127.835 73.1438 128.27 72.7059 128.27 72.1657C128.27 71.6255 127.835 71.1876 127.297 71.1876C126.76 71.1876 126.324 71.6255 126.324 72.1657C126.324 72.7059 126.76 73.1438 127.297 73.1438Z" fill="#F86B75"/>
<path d="M130.216 73.1438C130.754 73.1438 131.189 72.7059 131.189 72.1657C131.189 71.6255 130.754 71.1876 130.216 71.1876C129.679 71.1876 129.243 71.6255 129.243 72.1657C129.243 72.7059 129.679 73.1438 130.216 73.1438Z" fill="#FAD375"/>
<path d="M133.135 73.1438C133.672 73.1438 134.108 72.7059 134.108 72.1657C134.108 71.6255 133.672 71.1876 133.135 71.1876C132.598 71.1876 132.162 71.6255 132.162 72.1657C132.162 72.7059 132.598 73.1438 133.135 73.1438Z" fill="#8BCC55"/>
<path d="M241.459 68.9054H123.405V139.329H241.459V68.9054Z" stroke="#3F3D56" stroke-miterlimit="10"/>
<path d="M123.405 74.2388H241.459" stroke="#3F3D56" stroke-miterlimit="10"/>
<path d="M127.622 72.4918C128.159 72.4918 128.595 72.0539 128.595 71.5137C128.595 70.9736 128.159 70.5356 127.622 70.5356C127.084 70.5356 126.649 70.9736 126.649 71.5137C126.649 72.0539 127.084 72.4918 127.622 72.4918Z" stroke="#3F3D56" stroke-miterlimit="10"/>
<path d="M130.541 72.4918C131.078 72.4918 131.514 72.0539 131.514 71.5137C131.514 70.9736 131.078 70.5356 130.541 70.5356C130.003 70.5356 129.568 70.9736 129.568 71.5137C129.568 72.0539 130.003 72.4918 130.541 72.4918Z" stroke="#3F3D56" stroke-miterlimit="10"/>
<path d="M133.459 72.4918C133.997 72.4918 134.432 72.0539 134.432 71.5137C134.432 70.9736 133.997 70.5356 133.459 70.5356C132.922 70.5356 132.486 70.9736 132.486 71.5137C132.486 72.0539 132.922 72.4918 133.459 72.4918Z" stroke="#3F3D56" stroke-miterlimit="10"/>
<path d="M143.189 107.377C148.563 107.377 152.919 102.998 152.919 97.5963C152.919 92.1944 148.563 87.8153 143.189 87.8153C137.816 87.8153 133.459 92.1944 133.459 97.5963C133.459 102.998 137.816 107.377 143.189 107.377Z" stroke="#3F3D56" stroke-miterlimit="10"/>
<path d="M182.432 107.377C187.806 107.377 192.162 102.998 192.162 97.5963C192.162 92.1944 187.806 87.8153 182.432 87.8153C177.059 87.8153 172.703 92.1944 172.703 97.5963C172.703 102.998 177.059 107.377 182.432 107.377Z" stroke="#3F3D56" stroke-miterlimit="10"/>
<path d="M221.676 107.377C227.049 107.377 231.405 102.998 231.405 97.5963C231.405 92.1944 227.049 87.8153 221.676 87.8153C216.302 87.8153 211.946 92.1944 211.946 97.5963C211.946 102.998 216.302 107.377 221.676 107.377Z" stroke="#3F3D56" stroke-miterlimit="10"/>
<path d="M155.027 115.691H128.432V118.299H155.027V115.691Z" fill="#F2F2F2"/>
<path d="M194.595 115.691H168V118.299H194.595V115.691Z" fill="#F2F2F2"/>
<path d="M234.162 115.691H207.568V118.299H234.162V115.691Z" fill="#F2F2F2"/>
<path d="M156.324 114.713H129.73V117.321H156.324V114.713Z" stroke="#3F3D56" stroke-miterlimit="10"/>
<path d="M195.892 114.713H169.297V117.321H195.892V114.713Z" stroke="#3F3D56" stroke-miterlimit="10"/>
<path d="M235.459 114.713H208.865V117.321H235.459V114.713Z" stroke="#3F3D56" stroke-miterlimit="10"/>
<path d="M52.2162 172.747H31.7838V190.353H52.2162V172.747Z" fill="#F2F2F2"/>
<path d="M89.9999 172.91H69.5675V190.516H89.9999V172.91Z" fill="#F2F2F2"/>
<path d="M127.784 173.073H107.351V190.679H127.784V173.073Z" fill="#F2F2F2"/>
<path d="M55.1352 169.487H34.7028V187.093H55.1352V169.487Z" stroke="#3F3D56" stroke-miterlimit="10"/>
<path d="M92.9189 169.65H72.4865V187.255H92.9189V169.65Z" stroke="#3F3D56" stroke-miterlimit="10"/>
<path d="M130.703 169.813H110.27V187.419H130.703V169.813Z" stroke="#3F3D56" stroke-miterlimit="10"/>
<path d="M194.85 66.6713L185.749 71.7401L195.454 68.2985L194.85 66.6713Z" fill="#79758C"/>
<path d="M198.951 71.6586C200.285 71.2231 200.658 68.6804 199.786 65.9793C198.913 63.2782 197.124 61.4416 195.791 61.877C194.457 62.3125 194.083 64.8552 194.956 67.5563C195.829 70.2574 197.617 72.0941 198.951 71.6586Z" fill="#3F3D56"/>
<path d="M206.402 66.3C207.408 65.9715 207.724 64.159 207.108 62.2518C206.491 60.3446 205.176 59.0649 204.17 59.3934C203.164 59.722 202.848 61.5344 203.464 63.4416C204.08 65.3488 205.395 66.6286 206.402 66.3Z" fill="#3F3D56"/>
<path d="M197.956 63.7986L203.993 61.6077L205.276 65.1804L199.433 69.1475L197.956 63.7986Z" fill="#3F3D56"/>
<path d="M197.379 76.9337L199 73.3473C199 73.3473 202.892 62.9142 199.325 64.8704C195.757 66.8266 194.46 72.0432 194.46 72.0432L193.487 75.3035L197.379 76.9337Z" fill="#A0616A"/>
<path d="M241.811 131.055C241.811 131.055 236.298 141.814 234.676 142.14C233.055 142.466 233.055 132.359 233.055 132.359C233.055 132.359 236.298 129.425 237.595 129.751C238.892 130.077 241.811 131.055 241.811 131.055Z" fill="#A0616A"/>
<path d="M233.703 198.87C233.703 198.87 236.622 200.5 235.325 204.087C234.028 207.673 233.379 206.695 232.73 209.629C232.082 212.564 226.244 212.237 225.919 210.933C225.595 209.629 224.946 204.413 226.568 202.456C228.19 200.5 233.703 198.87 233.703 198.87Z" fill="#55536E"/>
<path d="M204.838 198.87C204.838 198.87 201.919 200.5 203.217 204.087C204.514 207.673 205.163 206.695 205.811 209.629C206.46 212.564 212.298 212.237 212.622 210.933C212.946 209.629 213.595 204.413 211.974 202.456C210.352 200.5 204.838 198.87 204.838 198.87Z" fill="#55536E"/>
<path d="M232.082 133.663C232.082 133.663 234.676 135.294 235.325 145.401C235.974 155.508 235.001 166.919 234.676 169.527C234.352 172.135 235.001 176.048 235.649 178.004C236.298 179.96 234.028 194.958 234.028 194.958C234.506 195.977 234.754 197.091 234.754 198.218C234.754 199.345 234.506 200.459 234.028 201.478C232.406 205.065 227.541 208.651 226.244 205.065C226.176 203.814 225.844 202.591 225.271 201.478C224.298 199.522 225.919 191.697 225.919 191.697C225.919 191.697 224.622 179.308 224.946 176.048C225.271 172.788 221.055 153.552 220.406 150.291C219.757 147.031 220.082 144.423 219.757 145.401C219.433 146.379 213.595 173.44 213.595 173.44C213.595 173.44 214.244 190.719 213.919 193.002C213.595 195.284 215.217 199.848 214.244 201.478C213.271 203.109 211.325 208.977 207.757 205.391C204.19 201.804 204.838 200.5 204.514 198.87C204.19 197.24 204.514 195.284 204.514 192.676C204.514 190.067 201.919 175.396 203.217 173.114C204.514 170.831 203.865 167.897 203.541 162.68C203.217 157.464 202.892 132.359 206.136 127.795C209.379 123.23 232.082 133.663 232.082 133.663Z" fill="#3F3D56"/>
<path d="M224.136 72.5322C228.434 72.5322 231.919 69.0289 231.919 64.7074C231.919 60.3859 228.434 56.8826 224.136 56.8826C219.837 56.8826 216.352 60.3859 216.352 64.7074C216.352 69.0289 219.837 72.5322 224.136 72.5322Z" fill="#A0616A"/>
<path d="M229.163 67.8046C229.163 67.8046 228.838 79.5419 230.46 81.4981C232.082 83.4543 216.514 79.8679 216.514 79.8679C216.514 79.8679 220.082 72.3691 217.811 67.4786C215.541 62.5881 229.163 67.8046 229.163 67.8046Z" fill="#A0616A"/>
<path d="M232.082 80.1939C232.082 80.1939 231.433 77.5857 227.541 76.9336C223.649 76.2815 219.047 75.6295 217.618 76.9336C216.19 78.2377 215.541 79.8679 214.568 79.8679H210.027L202.892 92.5832C202.892 92.5832 206.46 96.8216 205.487 104.646C204.514 112.471 202.892 126.817 202.892 126.817C205.492 130.296 207.772 134.007 209.703 137.902C212.946 144.423 235.325 143.77 234.027 132.359C234.027 132.359 232.406 129.425 233.055 126.817C233.703 124.208 235.649 106.603 235.649 106.603L243.109 86.7146C243.109 86.7146 232.73 81.4981 232.082 80.1939Z" fill="#55536E"/>
<path d="M240.838 86.3887H243.109C243.109 86.3887 244.406 93.8874 244.082 98.4519C243.757 103.016 243.757 113.775 243.757 113.775C243.757 113.775 245.055 116.384 244.73 118.666C244.406 120.948 243.757 127.143 243.757 127.143C243.757 127.143 243.433 135.946 237.271 131.381C237.271 131.381 235.325 130.403 236.298 126.165C237.271 121.926 235.649 117.362 235.649 117.362C235.649 117.362 236.622 114.428 236.298 112.471C235.973 110.515 234.676 104.321 234.676 104.321L240.838 86.3887Z" fill="#55536E"/>
<path d="M211.649 80.8461L210.028 79.868C210.028 79.868 207.757 78.8899 204.514 79.868C201.271 80.8461 199.649 80.5201 198.352 80.194C197.055 79.868 198.027 76.6077 198.027 76.6077C198.027 76.6077 195.433 72.0432 192.838 74.6515C190.244 77.2597 190.244 82.4763 190.244 82.4763C190.244 82.4763 188.622 85.7366 194.46 87.6928C200.298 89.649 202.892 92.5833 202.892 92.5833H209.379L211.649 80.8461Z" fill="#55536E"/>
<path d="M223.608 74.0475C223.598 73.7566 223.505 73.4748 223.339 73.236C223.174 72.9971 222.943 72.8113 222.676 72.701C222.318 72.5784 221.945 72.5044 221.567 72.4809C220.463 72.3378 219.327 71.9306 218.683 71.0825C217.827 69.9531 218.061 68.3733 217.374 67.1474C217.055 66.6647 216.706 66.203 216.328 65.765C215.13 64.1531 214.919 62.0953 214.809 60.1376C214.756 59.7408 214.801 59.3367 214.941 58.9618C215.147 58.6246 215.396 58.316 215.681 58.0438C216.165 57.4786 216.426 56.7547 216.415 56.0091C216.38 54.4928 218.538 53.474 220.067 52.9504C221.595 52.4268 223.253 52.3434 224.881 52.3212C225.817 52.3085 226.783 52.3196 227.644 52.6633C228.139 52.8795 228.604 53.1581 229.029 53.4924C230.832 54.8193 232.526 56.4506 233.131 58.5153C233.369 59.4578 233.479 60.4281 233.46 61.4001C233.488 61.7021 233.444 62.0067 233.331 62.2879C233.115 62.7254 232.605 62.9623 232.275 63.3332C231.659 64.0261 231.769 65.0286 231.691 65.9251C231.591 66.8497 231.276 67.7377 230.772 68.5177C230.268 69.2977 229.589 69.9477 228.79 70.4155C228.458 70.5789 228.152 70.7915 227.883 71.046C227.68 71.3162 227.511 71.6112 227.382 71.924C226.734 73.1749 225.099 74.0032 223.608 74.0475Z" fill="#3F3D56"/>
<path d="M62.4642 3.47913L58.1442 5.88493L62.7512 4.2515L62.4642 3.47913Z" fill="#79758C"/>
<path d="M64.4112 5.84648C65.0442 5.63977 65.2216 4.4328 64.8073 3.15063C64.393 1.86847 63.544 0.996642 62.9109 1.20335C62.2779 1.41006 62.1005 2.61704 62.5148 3.8992C62.929 5.18137 63.7781 6.05319 64.4112 5.84648Z" fill="#3F3D56"/>
<path d="M67.9479 3.30282C68.4255 3.14687 68.5756 2.28654 68.283 1.38123C67.9905 0.475915 67.3662 -0.131563 66.8886 0.0243887C66.411 0.18034 66.2609 1.04066 66.5534 1.94598C66.846 2.85129 67.4703 3.45877 67.9479 3.30282Z" fill="#3F3D56"/>
<path d="M63.939 2.11528L66.8044 1.07556L67.4134 2.77126L64.6402 4.65443L63.939 2.11528Z" fill="#3F3D56"/>
<path d="M91.6534 124.764L87.3334 127.169L91.9404 125.536L91.6534 124.764Z" fill="#79758C"/>
<path d="M93.6004 127.131C94.2334 126.924 94.4108 125.717 93.9965 124.435C93.5823 123.153 92.7332 122.281 92.1001 122.488C91.4671 122.694 91.2897 123.901 91.704 125.184C92.1182 126.466 92.9673 127.338 93.6004 127.131Z" fill="#3F3D56"/>
<path d="M97.137 124.587C97.6146 124.431 97.7646 123.571 97.4721 122.666C97.1796 121.76 96.5553 121.153 96.0777 121.309C95.6001 121.465 95.45 122.325 95.7425 123.231C96.035 124.136 96.6594 124.743 97.137 124.587Z" fill="#3F3D56"/>
<path d="M93.1281 123.4L95.9935 122.36L96.6026 124.056L93.8293 125.939L93.1281 123.4Z" fill="#3F3D56"/>
</g>
</g>
<defs>
<clipPath id="clip0">
<rect width="270" height="221" fill="white"/>
</clipPath>
</defs>
</svg>
