<svg width="115" height="82" viewBox="0 0 115 82" fill="none" xmlns="http://www.w3.org/2000/svg">
<path fill-rule="evenodd" clip-rule="evenodd" d="M3.49991 26.5C12.5063 29.3233 14.2474 32.3017 11.4999 40L3.49991 62.5C1.58248 66.4357 0.590672 68.7149 2.49991 76C2.40614 78.3262 2.74195 79.4318 4.26477 80.1907C4.73786 80.4264 5.26997 80.5225 5.79803 80.499C6.9382 80.4485 7.65231 80.1303 8.49991 79L29.9999 81C32.0763 80.8715 31.8794 79.5502 31.5597 77.4044C31.5401 77.2727 31.52 77.1378 31.4999 77C31.302 72.3066 31.5713 69.678 32.9999 65L36.4999 50C37.5663 46.9902 38.8827 45.8548 43.3446 45.9746C43.7781 45.9862 44.2093 46.0686 44.6242 46.1949C51.6296 48.3275 56.3868 47.8515 65.9999 43.5C65.9113 36.3408 66.2226 33.1748 68.9999 30.5C71.1141 28.1685 73.3021 27.7683 76.8631 27.1169C77.0706 27.0789 77.2828 27.0401 77.4999 27H81.9999H99.9999L101 25H108.5L109 14H112.5C114.144 9.49378 113.896 7.81098 112.5 5.5H109.5C108.46 3.03258 107.662 1.82498 104 1.5L103 3.5H102V5H50.4999V4H25.9999L24.4999 1.5H22.9999L21.9999 4C18.8554 4.06341 17.3885 4.54146 15.4999 6.5C13.7273 5.37309 12.737 4.82076 10.9999 5C10.9187 5.07135 10.8383 5.13238 10.7608 5.1912C10.0499 5.73066 9.58447 6.0839 10.9999 12.5C10.4667 15.4963 10.0468 17.2234 7.49991 21L5 23C1.75669 23.3998 1.20539 24.0851 3.49991 26.5ZM45 29.5L47.5 31V34.5C48.2074 36.5036 48.8801 37.6873 51 40L55.5222 42.7133C55.803 42.8818 56.1624 42.8376 56.394 42.606C56.7093 42.2907 56.6588 41.7658 56.2975 41.5046C51.5264 38.0555 50.3771 35.3321 51.5 29.5L58 30C61.3721 30.4905 62.6842 31.7512 63.7761 35.2432C63.932 35.742 63.9938 36.2663 63.9587 36.7877C63.7032 40.5903 62.6966 42.1786 60 44C55.7766 44.8619 54.0934 45.0515 52 45C44.9924 44.1284 42.9282 43.4172 40.5 42C38.6422 38.467 38.6729 36.9274 39.5 34.5C40.5259 31.5978 41.8285 30.5864 45 29.5ZM4.00004 76.5H7.50004C7.47041 77.2999 7.40188 77.9061 7.20787 78.3623C6.67036 79.626 4.55199 79.1982 4.12854 77.8918C4.00519 77.5113 3.96955 77.0678 4.00004 76.5Z" fill="#02344E"/>
<path d="M11.4999 40L11.029 39.8319L11.0288 39.8325L11.4999 40ZM3.49991 26.5L3.13744 26.8444L3.2267 26.9383L3.35035 26.9771L3.49991 26.5ZM3.49991 62.5L3.94941 62.719L3.96165 62.6939L3.97102 62.6675L3.49991 62.5ZM2.49991 76L2.99951 76.0201L3.00252 75.9455L2.98358 75.8732L2.49991 76ZM4.26477 80.1907L4.04175 80.6382L4.04175 80.6382L4.26477 80.1907ZM5.79803 80.499L5.77588 79.9995L5.77587 79.9995L5.79803 80.499ZM8.49991 79L8.54623 78.5021L8.26771 78.4762L8.0999 78.7L8.49991 79ZM29.9999 81L29.9536 81.4979L29.9922 81.5014L30.0308 81.499L29.9999 81ZM31.5597 77.4044L32.0542 77.3307L32.0542 77.3307L31.5597 77.4044ZM31.4999 77L31.0004 77.0211L31.0014 77.0466L31.0051 77.072L31.4999 77ZM32.9999 65L33.4781 65.146L33.483 65.13L33.4868 65.1136L32.9999 65ZM36.4999 50L36.0286 49.833L36.0193 49.8593L36.013 49.8864L36.4999 50ZM43.3446 45.9746L43.3312 46.4744L43.3312 46.4744L43.3446 45.9746ZM44.6242 46.1949L44.4785 46.6733L44.4785 46.6733L44.6242 46.1949ZM65.9999 43.5L66.2061 43.9555L66.5039 43.8207L66.4999 43.4938L65.9999 43.5ZM68.9999 30.5L69.3468 30.8601L69.3589 30.8484L69.3703 30.8359L68.9999 30.5ZM76.8631 27.1169L76.9531 27.6087L76.9531 27.6087L76.8631 27.1169ZM77.4999 27V26.5H77.4541L77.4091 26.5083L77.4999 27ZM99.9999 27V27.5H100.309L100.447 27.2236L99.9999 27ZM101 25V24.5H100.691L100.553 24.7764L101 25ZM108.5 25V25.5H108.978L108.999 25.0227L108.5 25ZM109 14V13.5H108.522L108.5 13.9773L109 14ZM112.5 14V14.5H112.85L112.97 14.1714L112.5 14ZM112.5 5.5L112.928 5.24149L112.782 5H112.5V5.5ZM109.5 5.5L109.039 5.69421L109.168 6H109.5V5.5ZM104 1.5L104.044 1.00196L103.705 0.971858L103.553 1.27639L104 1.5ZM103 3.5V4H103.309L103.447 3.72361L103 3.5ZM102 3.5V3H101.5V3.5H102ZM102 5V5.5H102.5V5H102ZM50.4999 5H49.9999V5.5H50.4999V5ZM50.4999 4H50.9999V3.5H50.4999V4ZM25.9999 4L25.5712 4.25725L25.7168 4.5H25.9999V4ZM24.4999 1.5L24.9287 1.24275L24.783 1H24.4999V1.5ZM22.9999 1.5V1H22.6614L22.5357 1.3143L22.9999 1.5ZM21.9999 4L22.01 4.4999L22.3411 4.49322L22.4642 4.1857L21.9999 4ZM15.4999 6.5L15.2317 6.92195L15.5763 7.14107L15.8598 6.84707L15.4999 6.5ZM10.9999 5L10.9486 4.50264L10.7898 4.51902L10.6699 4.62436L10.9999 5ZM10.7608 5.1912L10.4585 4.79291L10.4585 4.79291L10.7608 5.1912ZM10.9999 12.5L11.4922 12.5876L11.5096 12.4895L11.4882 12.3923L10.9999 12.5ZM7.49991 21L7.81227 21.3904L7.87182 21.3428L7.91446 21.2796L7.49991 21ZM5 23L5.06117 23.4962L5.20175 23.4789L5.31235 23.3904L5 23ZM47.5 31H48V30.7169L47.7572 30.5713L47.5 31ZM45 29.5L45.2572 29.0713L45.0579 28.9516L44.838 29.027L45 29.5ZM47.5 34.5H47V34.5857L47.0285 34.6665L47.5 34.5ZM51 40L50.6314 40.3378L50.6805 40.3914L50.7428 40.4287L51 40ZM55.5222 42.7133L55.2649 43.1421L55.2649 43.1421L55.5222 42.7133ZM56.394 42.606L56.0405 42.2524L56.0405 42.2524L56.394 42.606ZM56.2975 41.5046L56.5904 41.0994L56.5904 41.0994L56.2975 41.5046ZM51.5 29.5L51.5383 29.0015L51.0934 28.9672L51.009 29.4055L51.5 29.5ZM58 30L58.072 29.5052L58.0552 29.5028L58.0383 29.5015L58 30ZM63.7761 35.2432L64.2533 35.094L64.2533 35.094L63.7761 35.2432ZM63.9587 36.7877L63.4599 36.7542L63.4599 36.7542L63.9587 36.7877ZM60 44L60.1 44.4899L60.1974 44.47L60.2799 44.4143L60 44ZM52 45L51.9383 45.4962L51.9629 45.4992L51.9877 45.4998L52 45ZM40.5 42L40.0575 42.2327L40.1242 42.3596L40.248 42.4318L40.5 42ZM39.5 34.5L39.0286 34.3334L39.0267 34.3387L39.5 34.5ZM7.50004 76.5L7.99969 76.5185L8.0189 76H7.50004V76.5ZM4.00004 76.5V76H3.52616L3.50075 76.4732L4.00004 76.5ZM7.20787 78.3623L6.74776 78.1666L6.74776 78.1666L7.20787 78.3623ZM4.12854 77.8918L4.60417 77.7376L4.60417 77.7376L4.12854 77.8918ZM11.9708 40.1681C13.3502 36.303 13.6793 33.4363 12.338 31.1674C11.0141 28.9277 8.14979 27.4336 3.64947 26.0229L3.35035 26.9771C7.85646 28.3897 10.3659 29.7964 11.4772 31.6763C12.5712 33.527 12.3971 35.9987 11.029 39.8319L11.9708 40.1681ZM3.97102 62.6675L11.971 40.1675L11.0288 39.8325L3.02881 62.3325L3.97102 62.6675ZM2.98358 75.8732C2.03625 72.2585 1.82345 69.9383 2.06097 68.0566C2.29834 66.1761 2.98886 64.6906 3.94941 62.719L3.05042 62.281C2.09353 64.2451 1.32943 65.867 1.06885 67.9313C0.80842 69.9945 1.05433 72.4564 2.01625 76.1268L2.98358 75.8732ZM4.48779 79.7432C3.81174 79.4063 3.44876 79.0228 3.2409 78.4987C3.01939 77.9403 2.95306 77.1724 2.99951 76.0201L2.00032 75.9799C1.95299 77.1538 2.00768 78.1018 2.31134 78.8674C2.62865 79.6674 3.19499 80.2162 4.04175 80.6382L4.48779 79.7432ZM5.77587 79.9995C5.32153 80.0197 4.87552 79.9364 4.48779 79.7432L4.04175 80.6382C4.60019 80.9165 5.21842 81.0252 5.82019 80.9985L5.77587 79.9995ZM8.0999 78.7C7.70191 79.2307 7.36378 79.5321 7.02385 79.713C6.6862 79.8926 6.30408 79.9761 5.77588 79.9995L5.82018 80.9985C6.43214 80.9714 6.97717 80.8705 7.49351 80.5958C8.00759 80.3223 8.45031 79.8995 8.89993 79.3L8.0999 78.7ZM30.0462 80.5021L8.54623 78.5021L8.4536 79.4979L29.9536 81.4979L30.0462 80.5021ZM31.0651 77.4781C31.1459 78.02 31.2148 78.4846 31.2441 78.8895C31.2737 79.2972 31.2589 79.6001 31.1965 79.8251C31.1389 80.0328 31.0435 80.1675 30.891 80.2672C30.7229 80.377 30.4424 80.4717 29.969 80.501L30.0308 81.499C30.5956 81.4641 31.0691 81.3454 31.4381 81.1043C31.8226 80.853 32.0474 80.4992 32.1602 80.0922C32.2682 79.7026 32.2739 79.2648 32.2415 78.8173C32.2089 78.3669 32.1333 77.8617 32.0542 77.3307L31.0651 77.4781ZM31.0051 77.072C31.0253 77.2108 31.0455 77.3465 31.0651 77.4781L32.0542 77.3307C32.0346 77.1989 32.0146 77.0649 31.9947 76.928L31.0051 77.072ZM32.5217 64.854C31.0753 69.5904 30.8002 72.2758 31.0004 77.0211L31.9995 76.9789C31.8037 72.3374 32.0673 69.7657 33.4781 65.146L32.5217 64.854ZM36.013 49.8864L32.513 64.8864L33.4868 65.1136L36.9868 50.1136L36.013 49.8864ZM43.3581 45.4748C41.1019 45.4142 39.5317 45.6639 38.3817 46.3911C37.217 47.1276 36.5731 48.2961 36.0286 49.833L36.9712 50.167C37.4931 48.694 38.0406 47.79 38.9162 47.2363C39.8064 46.6733 41.1254 46.4152 43.3312 46.4744L43.3581 45.4748ZM44.7698 45.7166C44.3215 45.5801 43.8453 45.4879 43.3581 45.4748L43.3312 46.4744C43.711 46.4846 44.0971 46.5572 44.4785 46.6733L44.7698 45.7166ZM65.7937 43.0445C61.0034 45.2129 57.4654 46.3954 54.2739 46.7826C51.0956 47.1683 48.2272 46.7691 44.7698 45.7166L44.4785 46.6733C48.0266 47.7533 51.0395 48.1824 54.3944 47.7754C57.7362 47.3699 61.3833 46.1386 66.2061 43.9555L65.7937 43.0445ZM68.6531 30.1399C65.6982 32.9857 65.4118 36.3804 65.5 43.5062L66.4999 43.4938C66.4109 36.3012 66.747 33.364 69.3468 30.8601L68.6531 30.1399ZM76.7731 26.625C73.2281 27.2735 70.8718 27.6913 68.6295 30.1641L69.3703 30.8359C71.3563 28.6457 73.3761 28.263 76.9531 27.6087L76.7731 26.625ZM77.4091 26.5083C77.1925 26.5483 76.9807 26.5871 76.7731 26.625L76.9531 27.6087C77.1605 27.5708 77.3731 27.5319 77.5907 27.4917L77.4091 26.5083ZM81.9999 26.5H77.4999V27.5H81.9999V26.5ZM99.9999 26.5H81.9999V27.5H99.9999V26.5ZM100.553 24.7764L99.5527 26.7764L100.447 27.2236L101.447 25.2236L100.553 24.7764ZM108.5 24.5H101V25.5H108.5V24.5ZM108.5 13.9773L108 24.9773L108.999 25.0227L109.499 14.0227L108.5 13.9773ZM112.5 13.5H109V14.5H112.5V13.5ZM112.072 5.75851C112.746 6.87413 113.112 7.78611 113.14 8.93898C113.169 10.1158 112.847 11.5913 112.03 13.8286L112.97 14.1714C113.798 11.9025 114.173 10.2835 114.14 8.91459C114.106 7.52176 113.65 6.43685 112.928 5.24149L112.072 5.75851ZM109.5 6H112.5V5H109.5V6ZM103.956 1.99804C105.744 2.15675 106.74 2.52465 107.414 3.08192C108.097 3.64669 108.518 4.45838 109.039 5.69421L109.961 5.30579C109.442 4.07419 108.943 3.04837 108.052 2.31125C107.151 1.56663 105.918 1.16823 104.044 1.00196L103.956 1.99804ZM103.447 3.72361L104.447 1.72361L103.553 1.27639L102.553 3.27639L103.447 3.72361ZM102 4H103V3H102V4ZM102.5 5V3.5H101.5V5H102.5ZM50.4999 5.5H102V4.5H50.4999V5.5ZM49.9999 4V5H50.9999V4H49.9999ZM25.9999 4.5H50.4999V3.5H25.9999V4.5ZM24.0712 1.75725L25.5712 4.25725L26.4287 3.74275L24.9287 1.24275L24.0712 1.75725ZM22.9999 2H24.4999V1H22.9999V2ZM22.4642 4.1857L23.4642 1.6857L22.5357 1.3143L21.5357 3.8143L22.4642 4.1857ZM15.8598 6.84707C16.7713 5.90184 17.5498 5.34568 18.454 5.00767C19.3694 4.66549 20.4541 4.53127 22.01 4.4999L21.9898 3.5001C20.4011 3.53214 19.1802 3.66865 18.1039 4.07098C17.0164 4.47748 16.1171 5.13961 15.14 6.15293L15.8598 6.84707ZM11.0512 5.49736C11.8479 5.41516 12.4518 5.50063 13.0615 5.72854C13.6914 5.96399 14.3398 6.35496 15.2317 6.92195L15.7682 6.07805C14.8874 5.51812 14.1544 5.06948 13.4117 4.79185C12.6488 4.50667 11.8891 4.4056 10.9486 4.50264L11.0512 5.49736ZM11.063 5.5895C11.139 5.53183 11.2333 5.46053 11.3299 5.37564L10.6699 4.62436C10.6041 4.68217 10.5375 4.73294 10.4585 4.79291L11.063 5.5895ZM11.4882 12.3923C10.779 9.17759 10.5566 7.54345 10.5828 6.65662C10.5956 6.2234 10.6674 6.02023 10.7316 5.90958C10.7963 5.79822 10.8791 5.72905 11.063 5.58949L10.4585 4.79291C10.287 4.92308 10.0451 5.10037 9.8668 5.40746C9.68809 5.71527 9.5987 6.10257 9.58321 6.6271C9.55282 7.65578 9.8054 9.40632 10.5117 12.6077L11.4882 12.3923ZM7.91446 21.2796C9.19999 19.3733 9.96355 17.9627 10.4719 16.6363C10.9802 15.3103 11.225 14.0891 11.4922 12.5876L10.5076 12.4124C10.2417 13.9071 10.0099 15.0477 9.53816 16.2784C9.06652 17.5089 8.34667 18.8501 7.08537 20.7204L7.91446 21.2796ZM5.31235 23.3904L7.81227 21.3904L7.18756 20.6096L4.68765 22.6096L5.31235 23.3904ZM3.86238 26.1556C3.29654 25.5601 2.93848 25.1035 2.75067 24.754C2.56001 24.399 2.59935 24.2611 2.62224 24.2144C2.65845 24.1405 2.79239 23.9979 3.2336 23.85C3.65619 23.7084 4.25797 23.5953 5.06117 23.4962L4.93883 22.5038C4.12038 22.6046 3.437 22.7271 2.91575 22.9019C2.41311 23.0704 1.94451 23.325 1.7243 23.7743C1.49076 24.2508 1.6198 24.7619 1.86975 25.2272C2.12255 25.6978 2.55603 26.2325 3.13744 26.8444L3.86238 26.1556ZM47.7572 30.5713L45.2572 29.0713L44.7428 29.9287L47.2428 31.4287L47.7572 30.5713ZM48 34.5V31H47V34.5H48ZM51.3686 39.6622C49.2859 37.3899 48.6527 36.2629 47.9715 34.3335L47.0285 34.6665C47.7621 36.7442 48.4744 37.9846 50.6314 40.3378L51.3686 39.6622ZM55.7794 42.2846L51.2572 39.5713L50.7428 40.4287L55.2649 43.1421L55.7794 42.2846ZM56.0405 42.2524C55.9711 42.3218 55.8635 42.335 55.7794 42.2846L55.2649 43.1421C55.7425 43.4286 56.3538 43.3533 56.7476 42.9595L56.0405 42.2524ZM56.0045 41.9098C56.1252 41.997 56.1305 42.1624 56.0405 42.2524L56.7476 42.9595C57.2881 42.4191 57.1925 41.5346 56.5904 41.0994L56.0045 41.9098ZM51.009 29.4055C50.4405 32.3583 50.4284 34.6106 51.2249 36.5831C52.0208 38.5543 53.5917 40.1655 56.0045 41.9098L56.5904 41.0994C54.2321 39.3946 52.8429 37.9196 52.1521 36.2087C51.4619 34.4993 51.4366 32.4738 51.991 29.5945L51.009 29.4055ZM58.0383 29.5015L51.5383 29.0015L51.4617 29.9985L57.9617 30.4985L58.0383 29.5015ZM64.2533 35.094C63.6988 33.3206 63.065 32.0304 62.0811 31.1276C61.0899 30.218 59.8048 29.7573 58.072 29.5052L57.928 30.4948C59.5672 30.7332 60.6243 31.1481 61.4051 31.8644C62.1932 32.5876 62.7615 33.6738 63.2989 35.3924L64.2533 35.094ZM64.4576 36.8213C64.4968 36.2383 64.4278 35.6521 64.2533 35.094L63.2989 35.3924C63.4363 35.832 63.4908 36.2942 63.4599 36.7542L64.4576 36.8213ZM60.2799 44.4143C61.6582 43.4833 62.6554 42.5786 63.3302 41.3825C64.0033 40.1896 64.3275 38.7569 64.4576 36.8213L63.4599 36.7542C63.3344 38.6211 63.0275 39.8839 62.4593 40.8911C61.8928 41.8951 61.0384 42.6952 59.7201 43.5857L60.2799 44.4143ZM51.9877 45.4998C54.1381 45.5528 55.8652 45.3541 60.1 44.4899L59.9 43.5101C55.6879 44.3697 54.0487 44.5503 52.0123 44.5002L51.9877 45.4998ZM40.248 42.4318C42.7642 43.9004 44.9091 44.6218 51.9383 45.4962L52.0617 44.5038C45.0758 43.6349 43.0921 42.9339 40.752 41.5682L40.248 42.4318ZM39.0267 34.3387C38.6031 35.5819 38.3636 36.654 38.496 37.8887C38.6271 39.1113 39.1176 40.4454 40.0575 42.2327L40.9425 41.7673C40.0246 40.0216 39.6015 38.8193 39.4903 37.7821C39.3804 36.7569 39.5698 35.8455 39.9733 34.6613L39.0267 34.3387ZM44.838 29.027C43.236 29.5758 42.0406 30.1258 41.1143 30.9444C40.1781 31.7718 39.558 32.8357 39.0286 34.3334L39.9714 34.6666C40.4679 33.2621 41.0121 32.3693 41.7765 31.6938C42.5508 31.0095 43.5925 30.5107 45.162 29.973L44.838 29.027ZM7.50004 76H4.00004V77H7.50004V76ZM7.66798 78.558C7.90164 78.0086 7.97005 77.3188 7.99969 76.5185L7.00038 76.4815C6.97077 77.281 6.90212 77.8037 6.74776 78.1666L7.66798 78.558ZM3.6529 78.046C3.93571 78.9185 4.75664 79.4481 5.54028 79.5835C6.32651 79.7194 7.2763 79.4789 7.66798 78.558L6.74776 78.1666C6.60193 78.5094 6.22377 78.6868 5.71058 78.5981C5.19479 78.509 4.74481 78.1715 4.60417 77.7376L3.6529 78.046ZM3.50075 76.4732C3.46862 77.0717 3.50306 77.5837 3.6529 78.046L4.60417 77.7376C4.50732 77.4388 4.47048 77.064 4.49932 76.5268L3.50075 76.4732Z" fill="#02344E"/>
</svg>
