<svg width="69" height="69" viewBox="0 0 69 69" fill="none" xmlns="http://www.w3.org/2000/svg">
<path d="M31.1834 32.8128C31.08 27.913 30.0417 23.0782 28.1243 18.568C15.8875 24.2821 6.89867 35.0633 3.82601 47.7852C5.62419 51.9052 8.23185 55.6219 11.4942 58.7147C14.5965 47.927 21.6192 38.6885 31.1834 32.8128ZM26.2106 14.7003C24.1609 11.1292 21.5489 7.91189 18.475 5.17232C6.21136 11.8837 -1.03903 25.778 1.62933 40.5079C6.1305 29.3088 14.8903 20.0235 26.2106 14.7003ZM51.4926 36.9501C52.6516 23.5004 47.8135 10.3338 38.353 1.31803C36.3719 1.08892 31.3991 0.576815 25.0246 2.46353C32.8237 10.5452 37.3183 21.2515 37.6252 32.4785C41.92 34.8402 46.6272 36.358 51.4926 36.9501ZM34.6873 38.2303C30.4957 40.7753 26.8275 44.0959 23.8791 48.0143C34.9299 55.7364 48.7434 58.1352 61.2766 54.4561C63.9725 50.844 65.9073 46.7224 66.9637 42.3407C63.3999 43.2487 59.7388 43.7194 56.0612 43.7422C48.703 43.7288 41.3852 41.842 34.6873 38.2303ZM21.4399 51.6665C19.3914 55.1704 17.9764 58.9977 17.1139 63.0137C23.092 66.6829 30.0762 68.3705 37.0701 67.8357C44.0641 67.3008 50.7105 64.5709 56.0612 60.0354C40.8461 62.2051 28.6633 56.6932 21.4399 51.6665ZM45.7381 3.06998C53.1907 12.5575 56.8563 24.7942 55.7916 37.2465C59.8972 37.2552 63.9779 36.6092 67.8801 35.3329C67.8801 35.0633 67.9205 34.7938 67.9205 34.5243C67.9205 19.9965 58.6621 7.69244 45.7381 3.06998Z" fill="#02344E"/>
</svg>
