<svg width="70" height="56" viewBox="0 0 70 56" fill="none" xmlns="http://www.w3.org/2000/svg">
<g clip-path="url(#clip0)">
<path d="M43.7499 10.5C44.7883 10.5 45.8033 10.1921 46.6667 9.61522C47.53 9.03834 48.203 8.2184 48.6003 7.25909C48.9977 6.29978 49.1016 5.24418 48.8991 4.22578C48.6965 3.20738 48.1965 2.27192 47.4623 1.53769C46.728 0.803466 45.7926 0.303452 44.7742 0.10088C43.7558 -0.101693 42.7002 0.00227475 41.7409 0.399635C40.7815 0.796995 39.9616 1.4699 39.3847 2.33326C38.8078 3.19662 38.4999 4.21165 38.4999 5.25C38.4999 6.64239 39.0531 7.97775 40.0376 8.96231C41.0222 9.94688 42.3576 10.5 43.7499 10.5ZM43.3124 23.7344C43.9331 24.2314 44.7048 24.5015 45.4999 24.5H52.4999C53.4282 24.5 54.3184 24.1312 54.9748 23.4749C55.6312 22.8185 55.9999 21.9283 55.9999 21C55.9999 20.0717 55.6312 19.1815 54.9748 18.5251C54.3184 17.8687 53.4282 17.5 52.4999 17.5H46.7271L38.9374 11.2656C38.3017 10.7552 37.5074 10.4832 36.6922 10.4968C35.877 10.5104 35.0923 10.8087 34.4739 11.34L22.2239 21.84C21.8135 22.1918 21.4903 22.6339 21.2794 23.1315C21.0685 23.6292 20.9757 24.1689 21.0084 24.7084C21.041 25.2479 21.1982 25.7725 21.4675 26.2411C21.7368 26.7097 22.111 27.1096 22.5607 27.4094L31.4999 33.3725V45.5C31.4999 46.4283 31.8687 47.3185 32.5251 47.9749C33.1814 48.6312 34.0717 49 34.9999 49C35.9282 49 36.8184 48.6312 37.4748 47.9749C38.1312 47.3185 38.4999 46.4283 38.4999 45.5V31.5C38.4998 30.9239 38.3575 30.3567 38.0856 29.8488C37.8138 29.3409 37.4207 28.908 36.9414 28.5884L32.4176 25.573L38.7887 20.113L43.3124 23.7344ZM55.9999 28C53.231 28 50.5243 28.8211 48.222 30.3594C45.9197 31.8978 44.1253 34.0843 43.0656 36.6424C42.006 39.2006 41.7288 42.0155 42.269 44.7313C42.8091 47.447 44.1425 49.9416 46.1004 51.8995C48.0584 53.8574 50.5529 55.1908 53.2687 55.731C55.9844 56.2712 58.7993 55.9939 61.3575 54.9343C63.9157 53.8747 66.1022 52.0803 67.6405 49.778C69.1789 47.4757 69.9999 44.7689 69.9999 42C69.9999 38.287 68.5249 34.726 65.8994 32.1005C63.2739 29.475 59.713 28 55.9999 28ZM55.9999 49C54.6155 49 53.2621 48.5895 52.111 47.8203C50.9598 47.0511 50.0626 45.9579 49.5328 44.6788C49.003 43.3997 48.8644 41.9922 49.1344 40.6344C49.4045 39.2765 50.0712 38.0292 51.0502 37.0503C52.0292 36.0713 53.2764 35.4046 54.6343 35.1345C55.9922 34.8644 57.3997 35.003 58.6787 35.5328C59.9578 36.0627 61.0511 36.9599 61.8202 38.111C62.5894 39.2621 62.9999 40.6155 62.9999 42C62.9999 43.8565 62.2624 45.637 60.9497 46.9497C59.6369 48.2625 57.8565 49 55.9999 49ZM13.9999 28C11.231 28 8.52425 28.8211 6.22196 30.3594C3.91967 31.8978 2.12526 34.0843 1.06563 36.6424C0.0060049 39.2006 -0.271242 42.0155 0.268951 44.7313C0.809144 47.447 2.14252 49.9416 4.10045 51.8995C6.05839 53.8574 8.55295 55.1908 11.2687 55.731C13.9844 56.2712 16.7993 55.9939 19.3575 54.9343C21.9157 53.8747 24.1022 52.0803 25.6405 49.778C27.1789 47.4757 27.9999 44.7689 27.9999 42C27.9999 38.287 26.525 34.726 23.8994 32.1005C21.2739 29.475 17.713 28 13.9999 28ZM13.9999 49C12.6155 49 11.2621 48.5895 10.111 47.8203C8.95981 47.0511 8.0626 45.9579 7.53279 44.6788C7.00298 43.3997 6.86435 41.9922 7.13445 40.6344C7.40455 39.2765 8.07123 38.0292 9.0502 37.0503C10.0292 36.0713 11.2764 35.4046 12.6343 35.1345C13.9922 34.8644 15.3996 35.003 16.6787 35.5328C17.9578 36.0627 19.0511 36.9599 19.8202 38.111C20.5894 39.2621 20.9999 40.6155 20.9999 42C20.9999 43.8565 20.2624 45.637 18.9497 46.9497C17.6369 48.2625 15.8565 49 13.9999 49Z" fill="#02344E"/>
</g>
<defs>
<clipPath id="clip0">
<rect width="70" height="56" fill="white"/>
</clipPath>
</defs>
</svg>
