<svg width="70" height="72" viewBox="0 0 70 72" fill="none" xmlns="http://www.w3.org/2000/svg">
<path d="M68.2782 25.2281C63.4798 10.4906 49.7621 1.125 35.0141 1.125C31.4294 1.125 27.7883 1.67344 24.1895 2.84063C5.81452 8.78906 -4.24798 28.4625 1.72177 46.7719C6.52016 61.5094 20.2379 70.875 34.9859 70.875C38.5706 70.875 42.2117 70.3266 45.8105 69.1594C64.1855 63.2109 74.248 43.5375 68.2782 25.2281ZM57.7641 52.4672L50.3972 53.3672L44.2298 44.8031L47.6734 34.2281L57.7077 31.1203L63.1976 36.2391C63.1693 40.5563 62.1532 44.8312 60.1351 48.7828C59.4718 50.0906 58.625 51.2859 57.7641 52.4672ZM57.7641 19.3641L56.2964 26.8313L46.3185 29.925L37.2581 23.3859V13.0078L43.9476 9.32344C49.4798 11.1516 54.3064 14.6672 57.7641 19.3641ZM26.0948 9.3375L32.7419 13.0078V23.3859L23.6814 29.925L13.7177 26.8313L12.2923 19.4484C15.7218 14.7516 20.4637 11.2078 26.0948 9.3375ZM19.6169 53.3672L12.123 52.4531C10.0907 49.6266 6.85887 44.0719 6.78831 36.2391L12.2923 31.1203L22.3266 34.2422L25.756 44.6906L19.6169 53.3672ZM26.4194 62.7891L23.2581 56.025L29.4113 47.3484H40.504L46.756 56.025L43.5948 62.7891C42.7198 63.0422 35.4657 65.6578 26.4194 62.7891Z" fill="#02344E"/>
</svg>
