<svg width="101" height="114" viewBox="0 0 101 114" fill="none" xmlns="http://www.w3.org/2000/svg">
<path fill-rule="evenodd" clip-rule="evenodd" d="M88.9965 24C95.624 24 100.997 18.6274 100.997 12C100.997 5.37258 95.624 0 88.9965 0C82.3691 0 76.9965 5.37258 76.9965 12C76.9965 18.6274 82.3691 24 88.9965 24ZM47.9967 18L28.4967 27C26.8932 29.191 26.3171 30.46 27.4967 33C29.2459 35.3172 30.3866 36.0874 32.9966 35.5L49.9966 28H56.4966L41.9966 43C40.9646 44.7294 40.4892 45.7508 40.4966 48C40.4985 50.5363 40.6935 51.9585 43.4966 54.5L57.4966 66V91.5C58.5017 94.5708 59.6152 95.6666 62.9965 96C66.7363 95.8635 67.9327 94.5714 69.4965 91.5V63C69.5024 60.6589 68.7853 59.8807 67.4965 58.5L57.9965 51.5L76.9965 31C78.662 28.1281 78.7001 26.3642 77.4965 23L77.3946 22.8612C75.437 20.1956 74.3084 18.6588 70.4965 18H47.9967ZM85.219 38.5H75.9965L66.4965 48H85.37C85.786 48 86.2036 47.9544 86.6002 47.8286C88.7794 47.1375 89.4711 46.0308 89.8521 43.9351C89.9639 43.3205 89.932 42.6837 89.742 42.0885C89.1323 40.1785 88.295 39.3669 86.7309 38.7573C86.2508 38.5702 85.7342 38.5 85.219 38.5ZM43.4965 60.5L30.9965 73.5C30.8871 73.5833 30.7817 73.665 30.6785 73.745C29.7417 74.4708 28.9811 75.0601 26.9965 75.5L6.03092 75.0235C5.34935 75.008 4.67298 74.8628 4.06738 74.5497C2.3106 73.6414 1.5157 72.8021 0.812857 70.9226C0.587644 70.3203 0.515982 69.6687 0.600546 69.0313C0.937139 66.4942 1.79466 64.8977 4.1949 63.8207C4.71634 63.5867 5.28987 63.5 5.8614 63.5H24.4965L36 52C37.3696 55.8236 39.1457 57.7789 43.4965 60.5ZM34 97.5C32.4709 97.6072 30.221 96.6696 25.3517 94.1923C24.4706 93.744 23.451 93.4775 22.516 93.7983C21.5603 94.1263 21.1505 94.6979 21.1802 95.7286C21.2138 96.8939 22.0175 97.8755 23.0001 98.5029C25.7629 100.267 27.9437 101.165 31.4998 102.5C30.4688 103.827 29.9023 104.653 29.9809 107.507C29.9898 107.834 30.038 108.162 30.1247 108.477C31.1164 112.082 32.5983 113.265 36.1541 113.871C36.7118 113.966 37.2849 113.944 37.8377 113.824C40.8537 113.17 42.4518 112.509 43.7746 109.113C43.9314 108.71 44.0212 108.281 44.0384 107.849C44.133 105.47 43.6143 104.468 42.5 103H67.6563C66.7404 104.14 66.5066 105.089 66.4989 107.105C66.4979 107.368 66.5206 107.632 66.57 107.89C67.3532 111.986 69.1156 112.751 72.1159 113.61C73.0191 113.869 73.9837 113.873 74.8732 113.57C78.3657 112.383 79.293 111.194 80.1973 108.829C80.4058 108.284 80.5026 107.7 80.4778 107.117C80.3825 104.875 79.9891 103.803 79 102.5C81.313 101.908 83.6534 100.486 87.4548 98.01C88.4523 97.3603 89.3453 96.3804 89.3266 95.1902C89.316 94.5109 89.0484 94.0861 88.4598 93.8231C87.5664 93.4238 86.5382 93.7435 85.6718 94.1985C81.4403 96.4208 78.8799 97.7036 77.3125 97.5H34ZM40 107C40 108.657 38.6569 110 37 110C35.3431 110 34 108.657 34 107C34 105.343 35.3431 104 37 104C38.6569 104 40 105.343 40 107ZM73 110C74.6569 110 76 108.657 76 107C76 105.343 74.6569 104 73 104C71.3431 104 70 105.343 70 107C70 108.657 71.3431 110 73 110Z" fill="#02344E"/>
</svg>
