<svg width="96" height="98" viewBox="0 0 96 98" fill="none" xmlns="http://www.w3.org/2000/svg">
<path d="M41.0903 1.97148C32.6129 3.17734 24.4065 6.58437 17.4387 12.2691L32.4194 27.084C37.8 20.2316 40.8 11.5418 41.0903 1.97148ZM48 42.4922L78.5613 12.2691C70.3548 5.56992 60.4452 2.02891 50.4 1.53125C50.1677 13.7621 46.2387 24.9402 39.0387 33.6301L48 42.4922ZM10.8581 18.777C5.10968 25.6676 1.66452 33.7832 0.445161 42.1668C10.1226 41.8797 18.929 38.9129 25.8387 33.5918L10.8581 18.777ZM63.5419 57.8621C72.3097 50.7609 83.6129 46.8754 96 46.6266C95.4968 36.6926 91.9161 26.8926 85.1419 18.777L54.5806 49L63.5419 57.8621ZM48 55.5078L17.4387 85.7309C25.6452 92.4109 35.5548 95.9711 45.6 96.4688C45.8516 84.2188 49.7806 73.0406 56.9613 64.3699L48 55.5078ZM85.1419 79.223C90.8903 72.3324 94.3355 64.2168 95.5548 55.8332C85.8581 56.1395 77.071 59.1063 70.1613 64.4082L85.1419 79.223ZM32.4581 40.1379C23.671 47.2582 12.3677 51.1629 0 51.3734C0.503226 61.3074 4.08387 71.1074 10.8581 79.223L41.4194 49L32.4581 40.1379ZM54.9097 96.0285C63.3871 94.8227 71.5935 91.4156 78.5613 85.7309L63.5806 70.916C58.2194 77.7492 55.2194 86.4582 54.9097 96.0285Z" fill="#02344E"/>
</svg>
