<svg width="59" height="73" viewBox="0 0 59 73" fill="none" xmlns="http://www.w3.org/2000/svg">
<path d="M38.5769 13.6875C42.3368 13.6875 45.3846 10.6235 45.3846 6.84375C45.3846 3.064 42.3368 0 38.5769 0C34.8171 0 31.7692 3.064 31.7692 6.84375C31.7692 10.6235 34.8171 13.6875 38.5769 13.6875ZM16.1243 45.2643L14.0253 50.1861H4.53846C2.03238 50.1861 0 52.2292 0 54.7486C0 57.2679 2.03238 59.3111 4.53846 59.3111H15.523C18.2531 59.3111 20.711 57.68 21.7789 55.1635L23.0256 52.2378L21.5123 51.3395C19.0559 49.881 17.249 47.7223 16.1243 45.2643ZM54.4615 31.9361H48.2169L44.5209 24.3438C42.7481 20.7009 39.4931 18.0376 35.7588 17.0809L25.6778 14.0668C21.6641 13.0972 17.4844 13.9883 14.2125 16.5105L8.5862 20.8463C6.59637 22.3791 6.21911 25.242 7.74659 27.2424C9.27406 29.2428 12.1205 29.6178 14.1089 28.0865L19.7381 23.7507C20.8259 22.9109 22.2115 22.61 23.322 22.8752L25.4069 23.4983L20.094 35.9582C18.3042 40.1614 19.9082 45.0846 23.8241 47.4087L35.8765 54.5618L31.9806 67.0702C31.2317 69.474 32.5635 72.0333 34.9547 72.7861C35.4071 72.9287 35.8638 72.9971 36.3134 72.9971C38.2436 72.9971 40.0335 71.7467 40.6419 69.7963L45.1293 55.3873C45.9675 52.426 44.7194 49.2451 42.0602 47.6325L33.3747 42.4797L37.8153 31.3187L40.6901 37.2257C41.8248 39.5555 44.2245 41.0597 46.8043 41.0597H54.4615C56.9676 41.0597 59 39.0165 59 36.4971C59 33.9778 56.9676 31.9361 54.4615 31.9361Z" fill="#02344E"/>
</svg>
