<svg width="269" height="193" viewBox="0 0 269 193" fill="none" xmlns="http://www.w3.org/2000/svg">
<g opacity="0.8">
<g clip-path="url(#clip0)">
<path d="M0 192.87H43.2694" stroke="#3F3D56" stroke-miterlimit="10"/>
<path d="M250.389 33.2406H68.3963C65.6038 33.2406 63.3401 35.5003 63.3401 38.2878V158.03C63.3401 160.818 65.6038 163.078 68.3963 163.078H250.389C253.182 163.078 255.446 160.818 255.446 158.03V38.2878C255.446 35.5003 253.182 33.2406 250.389 33.2406Z" fill="#F2F2F2"/>
<path d="M244.525 25.0444H62.5315C59.7391 25.0444 57.4753 27.3041 57.4753 30.0916V149.834C57.4753 152.622 59.7391 154.882 62.5315 154.882H244.525C247.317 154.882 249.581 152.622 249.581 149.834V30.0916C249.581 27.3041 247.317 25.0444 244.525 25.0444Z" stroke="#3F3D56" stroke-miterlimit="10"/>
<path d="M57.4753 37.4922H249.581" stroke="#3F3D56" stroke-miterlimit="10"/>
<path opacity="0.3" d="M222.839 66.6755H174.144C173.123 66.6755 172.296 67.5018 172.296 68.521V72.8961C172.296 73.9153 173.123 74.7416 174.144 74.7416H222.839C223.86 74.7416 224.688 73.9153 224.688 72.8961V68.521C224.688 67.5018 223.86 66.6755 222.839 66.6755Z" fill="#006699"/>
<path opacity="0.3" d="M232.875 89.0522H164.109C163.088 89.0522 162.26 89.8785 162.26 90.8977V93.7117C162.26 94.7309 163.088 95.5571 164.109 95.5571H232.875C233.896 95.5571 234.723 94.7309 234.723 93.7117V90.8977C234.723 89.8785 233.896 89.0522 232.875 89.0522Z" fill="#006699"/>
<path opacity="0.3" d="M232.875 106.746H164.109C163.088 106.746 162.26 107.572 162.26 108.591V111.405C162.26 112.424 163.088 113.25 164.109 113.25H232.875C233.896 113.25 234.723 112.424 234.723 111.405V108.591C234.723 107.572 233.896 106.746 232.875 106.746Z" fill="#006699"/>
<path opacity="0.3" d="M232.875 124.439H164.109C163.088 124.439 162.26 125.265 162.26 126.284V129.098C162.26 130.117 163.088 130.944 164.109 130.944H232.875C233.896 130.944 234.723 130.117 234.723 129.098V126.284C234.723 125.265 233.896 124.439 232.875 124.439Z" fill="#006699"/>
<path d="M225.446 64.0736H176.751C175.73 64.0736 174.902 64.8998 174.902 65.919V70.2942C174.902 71.3134 175.73 72.1396 176.751 72.1396H225.446C226.467 72.1396 227.295 71.3134 227.295 70.2942V65.919C227.295 64.8998 226.467 64.0736 225.446 64.0736Z" stroke="#3F3D56" stroke-miterlimit="10"/>
<path d="M235.481 86.4503H166.715C165.694 86.4503 164.867 87.2765 164.867 88.2958V91.1097C164.867 92.129 165.694 92.9552 166.715 92.9552H235.481C236.502 92.9552 237.33 92.129 237.33 91.1097V88.2958C237.33 87.2765 236.502 86.4503 235.481 86.4503Z" stroke="#3F3D56" stroke-miterlimit="10"/>
<path d="M235.481 104.144H166.715C165.694 104.144 164.867 104.97 164.867 105.989V108.803C164.867 109.822 165.694 110.648 166.715 110.648H235.481C236.502 110.648 237.33 109.822 237.33 108.803V105.989C237.33 104.97 236.502 104.144 235.481 104.144Z" stroke="#3F3D56" stroke-miterlimit="10"/>
<path d="M235.481 121.837H166.715C165.694 121.837 164.867 122.663 164.867 123.682V126.496C164.867 127.515 165.694 128.342 166.715 128.342H235.481C236.502 128.342 237.33 127.515 237.33 126.496V123.682C237.33 122.663 236.502 121.837 235.481 121.837Z" stroke="#3F3D56" stroke-miterlimit="10"/>
<path opacity="0.3" d="M72.0722 36.7532C74.2316 36.7532 75.9821 35.0058 75.9821 32.8503C75.9821 30.6948 74.2316 28.9474 72.0722 28.9474C69.9129 28.9474 68.1624 30.6948 68.1624 32.8503C68.1624 35.0058 69.9129 36.7532 72.0722 36.7532Z" fill="#006699"/>
<path opacity="0.3" d="M83.0199 36.7532C85.1792 36.7532 86.9298 35.0058 86.9298 32.8503C86.9298 30.6948 85.1792 28.9474 83.0199 28.9474C80.8605 28.9474 79.11 30.6948 79.11 32.8503C79.11 35.0058 80.8605 36.7532 83.0199 36.7532Z" fill="#006699"/>
<path opacity="0.3" d="M93.9675 36.7532C96.1269 36.7532 97.8774 35.0058 97.8774 32.8503C97.8774 30.6948 96.1269 28.9474 93.9675 28.9474C91.8081 28.9474 90.0576 30.6948 90.0576 32.8503C90.0576 35.0058 91.8081 36.7532 93.9675 36.7532Z" fill="#006699"/>
<path d="M73.6362 35.1921C75.7956 35.1921 77.5461 33.4447 77.5461 31.2891C77.5461 29.1336 75.7956 27.3862 73.6362 27.3862C71.4768 27.3862 69.7263 29.1336 69.7263 31.2891C69.7263 33.4447 71.4768 35.1921 73.6362 35.1921Z" stroke="#3F3D56" stroke-miterlimit="10"/>
<path d="M84.5838 35.1921C86.7432 35.1921 88.4937 33.4447 88.4937 31.2891C88.4937 29.1336 86.7432 27.3862 84.5838 27.3862C82.4245 27.3862 80.674 29.1336 80.674 31.2891C80.674 33.4447 82.4245 35.1921 84.5838 35.1921Z" stroke="#3F3D56" stroke-miterlimit="10"/>
<path d="M95.5315 35.1921C97.6908 35.1921 99.4413 33.4447 99.4413 31.2891C99.4413 29.1336 97.6908 27.3862 95.5315 27.3862C93.3721 27.3862 91.6216 29.1336 91.6216 31.2891C91.6216 33.4447 93.3721 35.1921 95.5315 35.1921Z" stroke="#3F3D56" stroke-miterlimit="10"/>
<path d="M118.171 149.417C117.516 146.407 117.343 142.296 117.563 139.436C117.563 139.436 114.253 124.921 111.648 123.567L111.648 123.567C111.608 123.619 110.344 125.273 110.184 130.391C110.021 135.59 108.177 139.002 108.177 139.002C108.177 139.002 108.773 145.483 108.432 149.417L118.171 149.417Z" fill="#006699"/>
<path d="M142.249 57.0483H82.1784C81.3647 57.0483 80.5589 57.2083 79.8071 57.5192C79.0554 57.83 78.3723 58.2856 77.7969 58.86C77.2215 59.4343 76.7651 60.1162 76.4537 60.8666C76.1423 61.617 75.9821 62.4213 75.9821 63.2336V143.232C75.9821 144.044 76.1423 144.849 76.4537 145.599C76.7651 146.35 77.2215 147.031 77.7969 147.606C78.3723 148.18 79.0554 148.636 79.8071 148.947C80.5589 149.257 81.3647 149.417 82.1784 149.417H103.254C102.55 146.503 101.675 141.952 102.561 138.788L102.561 138.786L102.561 138.787C102.603 138.639 102.647 138.494 102.696 138.352C103.305 136.299 103.508 134.147 103.293 132.016C103.685 130.195 103.685 128.312 103.293 126.491C102.642 123.459 102.186 120.479 102.186 120.479C102.186 120.479 101.828 116.472 102.141 114.015C102.148 113.961 102.156 113.91 102.164 113.858C102.053 113.832 101.991 113.818 101.991 113.818C101.991 113.818 102.913 109.648 103.239 106.994C103.316 106.367 103.417 105.573 103.526 104.726C103.226 104.676 102.93 104.601 102.642 104.502C99.7121 103.473 98.7897 94.1576 98.7897 94.1576V91.2059C98.7897 91.2059 97.8131 86.6834 101.231 84.6795C104.523 82.7498 105.837 82.2217 105.93 82.1852C105.955 82.1673 105.98 82.151 106.005 82.1312C106.377 81.8398 106.672 81.4615 106.863 81.0297C106.867 80.9553 106.868 80.8814 106.866 80.8079C106.81 79.7498 106.072 78.7875 105.372 77.9478C104.775 77.2317 104.178 76.5155 103.581 75.7993C103.376 75.586 103.219 75.332 103.119 75.0539C103.081 74.9004 103.065 74.7425 103.07 74.5845C103.07 74.5261 103.07 74.4677 103.071 74.4094C103.081 73.8754 103.096 73.3416 103.115 72.8078C103.132 72.3415 103.249 71.7531 103.707 71.6573C103.945 71.6074 104.26 71.6943 104.386 71.4866C104.428 71.4011 104.439 71.3034 104.416 71.2107C104.414 71.2176 104.414 71.2249 104.412 71.2316C104.411 71.223 104.409 71.2142 104.407 71.2057C104.313 70.8318 104.256 70.4495 104.238 70.0644C104.233 69.8906 104.258 69.7172 104.311 69.5518C104.576 68.7777 105.489 68.46 106.295 68.314C107.102 68.1679 108.007 68.0423 108.513 67.3989C108.649 67.1852 108.796 66.979 108.953 66.7812C109.185 66.5705 109.471 66.4269 109.779 66.3658C110.78 66.1129 111.837 66.2065 112.778 66.6315C113.168 66.8091 113.56 67.0484 113.988 67.0213C114.432 66.9932 114.812 66.681 115.25 66.605C115.959 66.4823 116.637 67.0124 116.986 67.6401C117.208 68.0394 117.319 68.4907 117.307 68.9471C117.316 69.4015 117.151 69.8423 116.848 70.1807C116.543 70.5037 116.087 70.7256 115.961 71.1511C115.909 71.3243 115.921 71.5109 115.876 71.6857C115.87 71.7076 115.861 71.728 115.853 71.7491C115.861 71.76 115.871 71.7702 115.879 71.7811C116.412 72.483 116.77 73.302 116.922 74.1699C117.074 75.0378 117.015 75.9293 116.752 76.7701C116.488 77.611 116.027 78.3767 115.407 79.0033C114.786 79.63 114.025 80.0995 113.186 80.3726C113.184 80.4273 113.181 80.4822 113.182 80.5373C113.166 80.8787 113.224 81.2195 113.352 81.5367C113.479 81.8538 113.674 82.1398 113.922 82.3755L118.756 84.3545C118.756 84.3545 121.667 84.0024 122.717 88.338C122.886 89.0586 122.946 89.8002 122.897 90.5386C122.859 91.1923 122.948 92.3432 123.694 93.8326C124.888 96.2157 124.616 101.686 122.175 102.228C119.862 102.741 118.962 102.525 118.874 102.501L118.868 102.597C118.907 103.623 119.273 112.476 120.601 113.547C120.969 113.843 120.898 114.043 120.597 114.178L120.598 114.179C120.598 114.179 120.6 114.236 120.606 114.338C120.646 114.986 120.851 117.452 121.74 118.855C122.771 120.479 122.663 129.85 122.663 129.85L123.368 135.374C123.368 135.374 122.934 138.786 123.368 139.382C123.614 139.719 123.913 144.951 124.125 149.417H142.249C143.892 149.417 145.468 148.766 146.63 147.606C147.792 146.446 148.445 144.873 148.445 143.232V63.2336C148.445 62.4213 148.285 61.617 147.974 60.8666C147.662 60.1162 147.206 59.4343 146.63 58.86C146.055 58.2856 145.372 57.83 144.62 57.5192C143.868 57.2083 143.063 57.0483 142.249 57.0483Z" fill="#006699"/>
<path d="M135.993 50.0231H75.9226C72.5005 50.0231 69.7263 52.7923 69.7263 56.2083V136.207C69.7263 139.623 72.5005 142.392 75.9226 142.392H135.993C139.415 142.392 142.189 139.623 142.189 136.207V56.2083C142.189 52.7923 139.415 50.0231 135.993 50.0231Z" stroke="#3F3D56" stroke-miterlimit="10"/>
<path d="M26.2807 83.6865C26.2807 83.6865 23.8502 82.9691 23.3289 83.7497C22.8076 84.5303 24.0397 90.189 24.0397 90.189L29.3951 90.5138L27.5261 85.8026L26.2807 83.6865Z" fill="#2F2E41"/>
<path d="M7.54459 130.155C7.54459 130.155 12.4175 140.834 8.66481 140.498C4.91209 140.163 3.45581 130.155 3.45581 130.155H7.54459Z" fill="#A0616A"/>
<path d="M39.4145 129.042C39.4145 129.042 37.2768 140.581 40.8364 139.349C44.3961 138.116 43.3816 128.054 43.3816 128.054L39.4145 129.042Z" fill="#A0616A"/>
<path d="M25.244 81.009C25.244 81.009 25.188 86.3765 27.2604 86.656C29.3328 86.9356 26.0842 89.787 26.0842 89.787L22.3874 90.5139L17.0664 90.1225L14.714 87.1033C14.714 87.1033 18.8588 85.1464 17.0664 79.0521L25.244 81.009Z" fill="#A0616A"/>
<path opacity="0.1" d="M25.244 81.009C25.244 81.009 25.188 86.3765 27.2604 86.656C29.3328 86.9356 26.0842 89.787 26.0842 89.787L22.3874 90.5139L17.0664 90.1225L14.714 87.1033C14.714 87.1033 18.8588 85.1464 17.0664 79.0521L25.244 81.009Z" fill="black"/>
<path d="M34.7658 126.409C34.7658 126.409 37.3983 132.056 35.3259 149.779C35.3259 149.779 35.942 156.041 35.4379 157.216C34.9338 158.39 30.789 174.324 30.789 174.324C30.789 174.324 25.468 175.498 24.7399 171.976C24.7399 171.976 25.468 166.944 25.412 166.161C25.356 165.379 26.5882 156.824 26.5882 156.824L24.0677 140.275L22.1634 155.203C22.1634 155.203 22.1634 159.508 21.5472 160.458C20.9311 161.409 21.5472 180.53 21.5472 180.53C21.5472 180.53 23.2836 183.438 20.6511 183.494C18.0186 183.55 15.6661 183.438 15.4421 181.593C15.218 179.748 15.106 177.903 14.5459 176.784C13.9858 175.666 13.2576 162.863 13.4257 158.39C13.5937 153.917 9.72897 130.937 10.9612 128.533C12.1934 126.129 34.7658 126.409 34.7658 126.409Z" fill="#2F2E41"/>
<path d="M22.3874 83.0218C26.0995 83.0218 29.1087 80.0179 29.1087 76.3125C29.1087 72.607 26.0995 69.6031 22.3874 69.6031C18.6754 69.6031 15.6661 72.607 15.6661 76.3125C15.6661 80.0179 18.6754 83.0218 22.3874 83.0218Z" fill="#A0616A"/>
<path d="M15.6661 87.2151C15.6661 87.2151 19.7549 90.2342 25.6921 87.8301C25.6921 87.8301 27.6524 86.8796 27.4844 85.4259C27.3164 83.9722 31.5732 97.1113 31.5732 97.1113L35.886 119.979L35.662 129.316C35.662 129.316 33.7576 128.365 27.8205 130.49C21.8833 132.615 12.1935 128.086 12.1935 128.086L12.5295 104.1L12.8656 90.1224L13.7618 87.0473C13.7618 87.0473 14.2099 86.2087 15.6661 87.2151Z" fill="#F2F2F2"/>
<path d="M25.4307 83.4617C25.4307 83.4617 26.4201 83.3013 27.3723 84.8109C28.3245 86.3205 30.5649 87.271 30.5649 87.271C30.5649 87.271 35.9979 87.6064 36.7821 90.5138C37.5662 93.4212 39.5266 97.3908 40.4788 104.715C41.431 112.039 43.3353 123.725 43.6154 124.675C43.8954 125.626 43.2233 128.533 44.0075 129.428C44.7916 130.322 38.4624 130.322 38.4624 130.322C38.4624 130.322 37.9023 125.738 37.5102 125.738C37.1181 125.738 37.2302 128.813 37.6222 131.049C38.0143 133.286 34.7657 131.049 34.7657 131.049C34.7657 131.049 32.2452 120.817 29.8367 111.592C27.4283 102.367 26.028 97.279 26.4761 95.2103C26.9242 93.1416 28.1564 87.215 27.2603 86.6559C26.3641 86.0968 25.4307 83.4617 25.4307 83.4617Z" fill="#2F2E41"/>
<path d="M17.3535 83.4568C17.3535 83.4568 15.8902 84.2518 12.1935 86.8796C8.49674 89.5074 5.97626 91.5202 5.97626 91.5202C5.97626 91.5202 4.51999 92.6384 3.62382 99.2918C2.72765 105.945 0.711258 123.166 1.49541 125.346C2.27956 127.527 2.55962 128.813 2.27956 130.099C1.99951 131.385 8.16069 131.329 8.27271 131.049C8.38473 130.77 8.10467 125.682 8.38473 125.57C8.66478 125.458 10.1771 128.589 10.4571 131.217C10.7372 133.845 13.9858 135.913 14.7139 135.913C15.4421 135.913 19.1948 120.762 19.2508 110.418C19.3068 100.075 18.0186 91.3524 17.0664 90.1224C16.1142 88.8924 17.3535 83.4568 17.3535 83.4568Z" fill="#2F2E41"/>
<path d="M27.2043 174.827C27.2043 174.827 27.6524 173.597 29.2207 173.989C30.789 174.38 31.8532 172.982 31.8532 172.982C31.8532 172.982 32.6933 172.871 32.1332 173.933C31.5731 174.995 31.125 175.722 31.125 175.722C31.125 175.722 34.4857 183.382 32.3012 185.227C30.1168 187.072 27.5963 185.954 27.5963 185.954C27.5963 185.954 25.1319 184.221 25.2439 179.636C25.2439 179.636 25.1319 178.182 23.7876 175.834C22.4434 173.486 21.4352 169.907 23.0595 169.236C24.6838 168.565 25.1019 168.541 25.1019 168.541C25.1019 168.541 24.3418 172.011 26.3051 173.223L27.2043 174.827Z" fill="#3F3D56"/>
<path d="M16.7863 183.494C16.7863 183.494 15.442 180.978 17.6825 180.698C19.9229 180.419 22.3314 180.251 22.2193 181.425C22.1073 182.599 21.8273 184.388 21.8273 184.388L22.2193 185.674C22.2193 185.674 22.3314 188.861 22.7234 189.253C23.1155 189.644 25.2439 192.999 20.7071 192.999C16.1702 192.999 14.8259 192.495 15.218 191.433C15.6101 190.371 15.7221 185.115 15.7221 185.115L16.7863 183.494Z" fill="#3F3D56"/>
<path d="M20.259 70.945C20.259 70.945 23.3956 71.7837 25.0199 72.1191C26.6442 72.4546 26.4762 71.5041 26.4762 71.5041C26.4762 71.5041 28.6046 71.7837 28.4925 71.56C28.3805 71.3364 29.3887 70.1622 28.2125 68.8204C27.0363 67.4785 27.3723 66.4721 27.3723 66.4721H26.3641L26.0841 66.0808H24.5158C24.5158 66.0808 23.3396 65.6335 20.259 66.0808C17.1784 66.528 12.9776 66.6399 12.6415 68.4849C12.3054 70.33 10.5691 72.6223 11.1852 73.6846C11.8013 74.7469 15.33 79.108 15.6661 80.9531C16.0021 82.7981 17.5713 83.2081 17.5149 82.0526C17.4584 80.8971 15.8901 76.8716 17.2344 76.7038C18.5786 76.5361 20.8751 73.1255 20.259 70.945Z" fill="#2F2E41"/>
<path d="M243.685 1.94031C242.574 2.00296 241.502 2.37333 240.59 3.00989C239.678 3.64646 238.962 4.52405 238.521 5.54426C237.23 8.65978 238.893 12.3194 241.388 14.5913C243.884 16.8632 247.09 18.1617 250.003 19.8686C253.915 22.1613 257.431 25.3439 259.388 29.4292C261.346 33.5145 261.554 38.5751 259.253 42.4779C257.117 46.1005 253.234 48.2685 249.53 50.2681" stroke="#3F3D56" stroke-miterlimit="10"/>
<path d="M246.974 4.42331C249.494 4.42331 251.536 3.43312 251.536 2.21165C251.536 0.990191 249.494 0 246.974 0C244.455 0 242.413 0.990191 242.413 2.21165C242.413 3.43312 244.455 4.42331 246.974 4.42331Z" fill="#006699"/>
<path d="M250.624 18.9942C253.143 18.9942 255.185 18.004 255.185 16.7826C255.185 15.5611 253.143 14.5709 250.624 14.5709C248.104 14.5709 246.062 15.5611 246.062 16.7826C246.062 18.004 248.104 18.9942 250.624 18.9942Z" fill="#006699"/>
<path d="M242.282 21.3359C244.802 21.3359 246.844 20.3457 246.844 19.1243C246.844 17.9028 244.802 16.9126 242.282 16.9126C239.763 16.9126 237.721 17.9028 237.721 19.1243C237.721 20.3457 239.763 21.3359 242.282 21.3359Z" fill="#006699"/>
<path d="M255.315 33.5652C257.835 33.5652 259.877 32.575 259.877 31.3535C259.877 30.132 257.835 29.1418 255.315 29.1418C252.796 29.1418 250.754 30.132 250.754 31.3535C250.754 32.575 252.796 33.5652 255.315 33.5652Z" fill="#006699"/>
<path d="M264.438 33.5652C266.958 33.5652 269 32.575 269 31.3535C269 30.132 266.958 29.1418 264.438 29.1418C261.919 29.1418 259.877 30.132 259.877 31.3535C259.877 32.575 261.919 33.5652 264.438 33.5652Z" fill="#006699"/>
</g>
</g>
<defs>
<clipPath id="clip0">
<rect width="269" height="193" fill="white"/>
</clipPath>
</defs>
</svg>
