<svg width="268" height="169" viewBox="0 0 268 169" fill="none" xmlns="http://www.w3.org/2000/svg">
<g opacity="0.7">
<g clip-path="url(#clip0)">
<path d="M100.284 70.7297C100.284 70.7297 122.258 71.7915 123.581 79.4901C124.905 87.1887 97.901 80.2865 97.901 80.2865L100.284 70.7297Z" fill="#A0616A"/>
<path d="M65.6021 46.3066C65.6021 46.3066 69.3086 47.3685 72.2208 53.7397C75.133 60.111 80.9574 65.9512 80.9574 65.9512L104.52 70.4642L100.549 82.4102L78.0452 79.4901L64.0137 71.5261L65.6021 46.3066Z" fill="#575A89"/>
<path opacity="0.1" d="M65.6021 46.3066C65.6021 46.3066 69.3086 47.3685 72.2208 53.7397C75.133 60.111 80.9574 65.9512 80.9574 65.9512L104.52 70.4642L100.549 82.4102L78.0452 79.4901L64.0137 71.5261L65.6021 46.3066Z" fill="black"/>
<path d="M246.026 24.671H218.228V25.2019H246.026V24.671Z" fill="#3F3D56"/>
<path d="M196.519 24.671H108.359V25.2019H196.519V24.671Z" fill="#3F3D56"/>
<path d="M216.904 88.6487H8.0199V168.554H216.904V88.6487Z" fill="#3F3D56"/>
<path d="M30.6556 34.0951L33.0383 49.2268L49.4526 50.0232L47.5993 27.7239L30.6556 34.0951Z" fill="#A0616A"/>
<path d="M13.3149 135.106L12.5206 168.554H37.4067L41.1131 155.281L44.0253 168.554H69.9704C69.9704 168.554 70.4999 130.327 67.5877 130.062C64.6755 129.796 13.3149 135.106 13.3149 135.106Z" fill="#2F2E41"/>
<path d="M35.9506 38.0772C43.8462 38.0772 50.2468 31.6591 50.2468 23.7419C50.2468 15.8248 43.8462 9.40668 35.9506 9.40668C28.0549 9.40668 21.6543 15.8248 21.6543 23.7419C21.6543 31.6591 28.0549 38.0772 35.9506 38.0772Z" fill="#A0616A"/>
<path d="M11.8588 136.566L19.2717 99.9311L9.47607 51.3506L32.0362 42.862L43.0987 41.5283L48.6601 40.4872L52.6296 41.5283C52.6296 41.5283 68.5143 45.5103 69.3086 48.4304C70.1028 51.3506 66.1316 75.2426 66.1316 75.2426L62.4252 94.8872L70.6323 130.194C70.6323 130.194 36.4801 141.875 12.3883 136.566H11.8588Z" fill="#575A89"/>
<path opacity="0.1" d="M21.7867 64.7566V74.5789L53.0246 74.6216L23.3752 71.3933L21.7867 64.7566Z" fill="black"/>
<path opacity="0.1" d="M19.1038 91.8836L58.3216 86.2595L19.1038 97.3974V91.8836Z" fill="black"/>
<path opacity="0.1" d="M81.3543 66.0839L77.1499 81.2753L84.2665 66.5851L81.3543 66.0839Z" fill="black"/>
<path d="M47.7161 9.36514L50.3451 8.30979C50.3451 8.30979 44.8482 2.24155 37.2003 2.76925L39.3513 0.394689C39.3513 0.394689 34.0934 -1.71598 29.3135 3.82456C26.8008 6.7371 23.8936 10.1607 22.0813 14.0172H19.2659L20.4409 16.6116L16.3282 19.206L20.5495 18.74C20.298 20.1607 20.2594 21.6111 20.435 23.0433C20.616 24.4758 21.3451 25.7818 22.4683 26.6856C22.4683 26.6856 25.7287 19.9186 25.7287 18.8632V21.5016C25.7287 21.5016 28.3576 19.1271 28.3576 17.5441L29.7916 19.3909L30.5085 16.4887L39.3513 19.3909L37.9174 17.0164L43.4142 17.8079L41.2632 14.9057C41.2632 14.9057 47.4771 18.3356 47.7161 21.2378C47.9551 24.14 49.7739 26.89 49.7739 26.89C49.7739 26.89 54.6469 13.3227 47.7161 9.36514Z" fill="#2F2E41"/>
<path d="M163.426 62.3674H61.7633V168.82H163.426V62.3674Z" fill="#D0CDE1"/>
<path d="M147.541 85.7286H72.353V96.3473H147.541V85.7286Z" fill="#006699"/>
<path d="M134.52 113.868H85.2789V119.178H134.52V113.868Z" fill="#006699"/>
<path d="M134.615 123.159H85.3739V128.469H134.615V123.159Z" fill="#006699"/>
<path d="M110.09 132.451H85.469V137.76H110.09V132.451Z" fill="#006699"/>
<path d="M148.865 159.263H137.48V164.572H148.865V159.263Z" fill="#006699"/>
<path d="M54.4828 75.7736C54.4828 75.7736 77.5156 72.3225 80.9573 77.3664C84.399 82.4103 56.6008 85.0649 56.6008 85.0649L54.4828 75.7736Z" fill="#A0616A"/>
<path d="M12.1235 51.085H10.4646C9.78238 51.0831 9.12459 51.3398 8.62313 51.8037C7.04844 53.2698 3.71883 57.0532 2.32792 63.8275C0.474704 72.8534 -2.70224 90.3742 4.44589 91.7016C11.594 93.0289 58.454 86.6577 58.454 86.6577L55.0123 74.4462L21.1248 74.7116C21.1248 74.7116 21.6543 68.8714 20.5954 65.1548C19.5364 61.4383 12.1235 51.085 12.1235 51.085Z" fill="#575A89"/>
<path d="M108.358 35.8207C114.353 35.8207 119.213 30.9477 119.213 24.9365C119.213 18.9254 114.353 14.0524 108.358 14.0524C102.364 14.0524 97.5039 18.9254 97.5039 24.9365C97.5039 30.9477 102.364 35.8207 108.358 35.8207Z" fill="#D0CDE1"/>
<path d="M157.866 35.8207C163.861 35.8207 168.72 30.9477 168.72 24.9365C168.72 18.9254 163.861 14.0524 157.866 14.0524C151.871 14.0524 147.011 18.9254 147.011 24.9365C147.011 30.9477 151.871 35.8207 157.866 35.8207Z" fill="#3F3D56"/>
<path d="M207.373 36.0861C205.174 36.0861 203.024 35.4322 201.196 34.2071C199.367 32.982 197.942 31.2406 197.1 29.2033C196.259 27.166 196.039 24.9241 196.468 22.7613C196.897 20.5985 197.956 18.6118 199.511 17.0525C201.066 15.4932 203.047 14.4313 205.204 14.0011C207.361 13.5709 209.597 13.7917 211.629 14.6356C213.66 15.4795 215.397 16.9086 216.619 18.7421C217.841 20.5757 218.493 22.7313 218.493 24.9365C218.489 27.8926 217.317 30.7266 215.232 32.8168C213.148 34.907 210.321 36.0828 207.373 36.0861ZM207.373 14.3178C205.279 14.3178 203.231 14.9406 201.49 16.1074C199.748 17.2742 198.391 18.9326 197.59 20.8729C196.788 22.8132 196.578 24.9483 196.987 27.0081C197.396 29.0679 198.404 30.96 199.885 32.4451C201.366 33.9301 203.253 34.9415 205.307 35.3512C207.362 35.7609 209.491 35.5506 211.426 34.7469C213.361 33.9432 215.015 32.5822 216.178 30.8359C217.342 29.0897 217.963 27.0367 217.963 24.9365C217.96 22.1212 216.843 19.4222 214.858 17.4315C212.873 15.4408 210.181 14.321 207.373 14.3178Z" fill="#3F3D56"/>
<path d="M256.881 36.0861C254.682 36.0861 252.532 35.4322 250.703 34.2071C248.875 32.982 247.449 31.2406 246.608 29.2033C245.766 27.166 245.546 24.9241 245.975 22.7613C246.404 20.5985 247.463 18.6118 249.018 17.0525C250.573 15.4932 252.555 14.4313 254.712 14.0011C256.868 13.5709 259.104 13.7917 261.136 14.6356C263.168 15.4795 264.904 16.9086 266.126 18.7421C267.348 20.5757 268 22.7313 268 24.9365C267.997 27.8926 266.824 30.7266 264.74 32.8168C262.655 34.907 259.829 36.0828 256.881 36.0861ZM256.881 14.3178C254.786 14.3178 252.739 14.9406 250.997 16.1074C249.256 17.2742 247.899 18.9326 247.097 20.8729C246.296 22.8132 246.086 24.9483 246.494 27.0081C246.903 29.0679 247.912 30.96 249.393 32.4451C250.874 33.9301 252.761 34.9415 254.815 35.3512C256.869 35.7609 258.998 35.5506 260.933 34.7469C262.868 33.9432 264.522 32.5822 265.686 30.8359C266.85 29.0897 267.471 27.0367 267.471 24.9365C267.467 22.1212 266.351 19.4222 264.365 17.4315C262.38 15.4408 259.688 14.321 256.881 14.3178Z" fill="#3F3D56"/>
<path d="M106.862 29.567L102.158 23.2783L103.852 22.0038L107.091 26.3336L121.98 11.4042L123.478 12.9057L106.862 29.567Z" fill="#3F3D56"/>
<path d="M220.557 168.261H4.36719V169H220.557V168.261Z" fill="#3F3D56"/>
</g>
</g>
<defs>
<clipPath id="clip0">
<rect width="268" height="169" fill="white"/>
</clipPath>
</defs>
</svg>
