<svg width="77" height="82" viewBox="0 0 77 82" fill="none" xmlns="http://www.w3.org/2000/svg">
<path d="M54.8734 44.4446L56.7466 42.5716C57.5396 41.7784 58.8222 41.7784 59.6068 42.5716L76.0094 58.9656C76.8024 59.7588 76.8024 61.0412 76.0094 61.826L59.6068 78.2284C58.8138 79.0216 57.5312 79.0216 56.7466 78.2284L54.8734 76.3554C54.0718 75.5538 54.0888 74.246 54.9072 73.4612L65.0744 63.775H40.825C39.7028 63.775 38.8 62.8722 38.8 61.75V59.05C38.8 57.9278 39.7028 57.025 40.825 57.025H65.0744L54.9072 47.3388C54.0804 46.554 54.0634 45.2462 54.8734 44.4446Z" fill="white"/>
<path d="M23.412 81.4582C22.212 81.4582 21.0252 81.1114 19.852 80.4182C18.7052 79.7514 17.2386 78.7114 15.452 77.2982C14.1186 76.2314 12.972 75.3648 12.012 74.6982C11.0786 74.0582 10.052 73.5114 8.93199 73.0582C7.83859 72.6048 6.71859 72.3782 5.57193 72.3782C5.17193 72.3782 4.86527 72.3914 4.65193 72.4182L10.612 44.6982C8.82519 45.4182 7.43859 46.5248 6.45193 48.0182C5.49193 49.4848 5.01193 51.2848 5.01193 53.4182C5.01193 54.4048 5.10527 55.0982 5.29193 55.4982C5.47859 55.8714 5.57193 56.0848 5.57193 56.1382C4.13193 56.1382 3.05193 55.8448 2.33193 55.2582C1.63859 54.6448 1.29193 53.6448 1.29193 52.2582C1.29193 50.5514 1.98527 48.8982 3.37193 47.2982C4.78527 45.6714 6.58527 44.3648 8.77199 43.3782C10.9586 42.3648 13.1452 41.8582 15.332 41.8582C15.7052 41.8582 16.2386 41.8848 16.932 41.9382L10.772 70.6582C11.5186 70.8448 12.2786 71.1114 13.052 71.4582C13.852 71.8314 14.812 72.3248 15.932 72.9382C17.6652 73.8714 19.1452 74.5782 20.372 75.0582C21.5986 75.5648 22.8786 75.8182 24.212 75.8182C25.412 75.8182 26.532 75.6048 27.572 75.1782C27.3586 77.1248 26.8786 78.6582 26.132 79.7782C25.412 80.8982 24.5052 81.4582 23.412 81.4582ZM21.0082 71.6982C19.4882 71.6982 18.2216 71.1782 17.2082 70.1382C16.1948 69.0982 15.6882 67.4714 15.6882 65.2582C15.6882 63.2848 16.0748 61.2182 16.8482 59.0582C17.6482 56.8714 18.8216 55.0314 20.3682 53.5382C21.9416 52.0182 23.8082 51.2582 25.9682 51.2582C27.0616 51.2582 27.8748 51.4448 28.4082 51.8182C28.9416 52.1914 29.2082 52.6848 29.2082 53.2982V53.5782L29.6482 51.4582H35.4082L32.5282 65.0582C32.4216 65.4582 32.3682 65.8848 32.3682 66.3382C32.3682 66.8714 32.4882 67.2582 32.7282 67.4982C32.9948 67.7114 33.4216 67.8182 34.0082 67.8182C34.3816 67.8182 34.6748 67.7648 34.8882 67.6582C34.3016 69.1514 33.7416 70.2048 33.2082 70.8182C32.6748 71.4048 31.9016 71.6982 30.8882 71.6982C29.7948 71.6982 28.9016 71.3782 28.2082 70.7382C27.5416 70.0714 27.1282 69.1514 26.9682 67.9782C25.3416 70.4582 23.3548 71.6982 21.0082 71.6982ZM23.6082 67.8182C24.2748 67.8182 24.9282 67.5114 25.5682 66.8982C26.2348 66.2582 26.6882 65.3914 26.9282 64.2982L28.8482 55.2582C28.8482 54.9114 28.7148 54.5782 28.4482 54.2582C28.1816 53.9114 27.7682 53.7382 27.2082 53.7382C26.1416 53.7382 25.1816 54.3648 24.3282 55.6182C23.4748 56.8448 22.8082 58.3382 22.3282 60.0982C21.8482 61.8314 21.6082 63.3648 21.6082 64.6982C21.6082 66.0314 21.7948 66.8848 22.1682 67.2582C22.5682 67.6314 23.0482 67.8182 23.6082 67.8182Z" fill="white"/>
<path d="M64.8754 40.2C63.6754 40.2 62.4888 39.8534 61.3154 39.16C60.1688 38.4934 58.7022 37.4534 56.9154 36.04C55.5822 34.9734 54.4354 34.1066 53.4754 33.44C52.5422 32.8 51.5154 32.2534 50.3954 31.8C49.3022 31.3466 48.1822 31.12 47.0354 31.12C46.6354 31.12 46.3288 31.1334 46.1154 31.16L52.0754 3.44C50.2888 4.16 48.9022 5.26666 47.9154 6.76C46.9554 8.2266 46.4754 10.0266 46.4754 12.16C46.4754 13.1466 46.5688 13.84 46.7554 14.24C46.9422 14.6134 47.0354 14.8266 47.0354 14.88C45.5954 14.88 44.5154 14.5866 43.7954 14C43.1022 13.3866 42.7554 12.3866 42.7554 11C42.7554 9.2934 43.4488 7.64 44.8354 6.04C46.2488 4.41334 48.0488 3.10666 50.2354 2.12C52.4222 1.10666 54.6088 0.599999 56.7954 0.599999C57.1688 0.599999 57.7022 0.62666 58.3954 0.68L52.2354 29.4C52.9822 29.5866 53.7422 29.8534 54.5154 30.2C55.3154 30.5734 56.2754 31.0666 57.3954 31.68C59.1288 32.6134 60.6088 33.32 61.8354 33.8C63.0622 34.3066 64.3422 34.56 65.6754 34.56C66.8754 34.56 67.9954 34.3466 69.0354 33.92C68.8222 35.8666 68.3422 37.4 67.5954 38.52C66.8754 39.64 65.9688 40.2 64.8754 40.2ZM62.4718 30.44C60.9518 30.44 59.685 29.92 58.6718 28.88C57.6584 27.84 57.1518 26.2134 57.1518 24C57.1518 22.0266 57.5384 19.96 58.3118 17.8C59.1118 15.6134 60.285 13.7734 61.8318 12.28C63.405 10.76 65.2718 10 67.4318 10C68.525 10 69.3384 10.1866 69.8718 10.56C70.405 10.9334 70.6718 11.4266 70.6718 12.04V12.32L71.1118 10.2H76.8718L73.9918 23.8C73.885 24.2 73.8318 24.6266 73.8318 25.08C73.8318 25.6134 73.9518 26 74.1918 26.24C74.4584 26.4534 74.885 26.56 75.4718 26.56C75.845 26.56 76.1384 26.5066 76.3518 26.4C75.765 27.8934 75.205 28.9466 74.6718 29.56C74.1384 30.1466 73.365 30.44 72.3518 30.44C71.2584 30.44 70.365 30.12 69.6718 29.48C69.005 28.8134 68.5918 27.8934 68.4318 26.72C66.805 29.2 64.8184 30.44 62.4718 30.44ZM65.0718 26.56C65.7384 26.56 66.3918 26.2534 67.0318 25.64C67.6984 25 68.1518 24.1334 68.3918 23.04L70.3118 14C70.3118 13.6534 70.1784 13.32 69.9118 13C69.645 12.6534 69.2318 12.48 68.6718 12.48C67.605 12.48 66.645 13.1066 65.7918 14.36C64.9384 15.5866 64.2718 17.08 63.7918 18.84C63.3118 20.5734 63.0718 22.1066 63.0718 23.44C63.0718 24.7734 63.2584 25.6266 63.6318 26C64.0318 26.3734 64.5118 26.56 65.0718 26.56Z" fill="white"/>
<path d="M8.92001 30.84C5.90667 30.84 3.69335 30.08 2.28001 28.56C0.866668 27.04 0.160007 24.52 0.160007 21C0.160007 18.2 0.626668 15.1866 1.56001 11.96C2.52001 8.7334 4.04001 5.97334 6.12001 3.68C8.22661 1.36 10.8934 0.200001 14.12 0.200001C16.12 0.200001 17.7334 0.64 18.96 1.52C20.1866 2.4 20.8 3.74666 20.8 5.56C20.8 6.7066 20.5734 7.6134 20.12 8.28C19.6666 8.92 18.96 9.24 18 9.24C17.04 9.24 16.28 8.8934 15.72 8.2C16.2 7.96 16.6266 7.48 17 6.76C17.3734 6.04 17.56 5.29334 17.56 4.52C17.56 3.8 17.36 3.21334 16.96 2.76C16.5866 2.30666 15.9734 2.08 15.12 2.08C13.7066 2.08 12.36 3.05334 11.08 5C9.80001 6.92 8.76001 9.3466 7.96001 12.28C7.18667 15.2134 6.80001 18.04 6.80001 20.76C6.80001 22.7866 7.14667 24.3334 7.84001 25.4C8.53341 26.4666 9.78661 27 11.6 27C13.1734 27 14.6266 26.6534 15.96 25.96C17.2934 25.2666 18.44 24.28 19.4 23L20.32 23.4C19.6534 25.08 18.6666 26.48 17.36 27.6C16.0534 28.72 14.6534 29.5466 13.16 30.08C11.6666 30.5866 10.2534 30.84 8.92001 30.84ZM25.1228 30.36C23.1494 30.36 21.5894 29.8534 20.4428 28.84C19.2962 27.8266 18.7228 26.2266 18.7228 24.04C18.7228 22.2 19.0828 20.1866 19.8028 18C20.5228 15.7866 21.6962 13.88 23.3228 12.28C24.9494 10.6534 27.0294 9.84 29.5628 9.84C32.7094 9.84 34.4028 11.64 34.6428 15.24C35.2294 15.1066 35.7494 14.7866 36.2028 14.28C36.6562 13.7466 37.0828 13.1466 37.4828 12.48H38.7628C38.0428 13.92 37.4028 15.0534 36.8428 15.88C36.2828 16.68 35.5494 17.3334 34.6428 17.84C34.4828 20.3466 33.9628 22.5466 33.0828 24.44C32.2294 26.3334 31.1094 27.8 29.7228 28.84C28.3362 29.8534 26.8028 30.36 25.1228 30.36ZM26.7228 26.76C27.7094 26.76 28.6294 25.96 29.4828 24.36C30.3362 22.76 30.9228 20.7866 31.2428 18.44C30.6028 18.2 30.2828 17.6 30.2828 16.64C30.2828 15.6 30.6562 14.9066 31.4028 14.56C31.3494 13.7066 31.2028 13.12 30.9628 12.8C30.7494 12.4534 30.3894 12.28 29.8828 12.28C29.0028 12.28 28.1628 12.92 27.3628 14.2C26.5628 15.4534 25.9094 16.9866 25.4028 18.8C24.9228 20.5866 24.6828 22.16 24.6828 23.52C24.6828 24.8 24.8294 25.6666 25.1228 26.12C25.4162 26.5466 25.9494 26.76 26.7228 26.76Z" fill="white"/>
</svg>
